<svg xmlns="http://www.w3.org/2000/svg" width="2539" height="1081"><path d="M2168 131c6.867 2.068 13.193 4.848 19.625 8l6.11 2.96c1.035.505 2.07 1.008 3.138 1.527 3.04 1.471 6.09 2.922 9.143 4.365 12.362 5.845 24.526 11.952 36.512 18.537a715.406 715.406 0 0 0 16.958 9c9.435 4.854 18.573 9.892 27.514 15.611a746.086 746.086 0 0 0 5 3c14.618 8.752 29.264 17.605 42.941 27.785 3.25 2.353 6.557 4.6 9.881 6.845 8.438 5.7 16.573 11.618 24.491 18.018a392.113 392.113 0 0 0 5.308 4.165A310.226 310.226 0 0 1 2395 268c3.368 3.02 6.74 6.017 10.309 8.8 7.461 5.85 14.041 12.403 20.673 19.168l2.272 2.313 2.041 2.096c1.624 1.705 1.624 1.705 3.705 2.623v2l1.746.695c2.846 1.647 4.303 3.583 6.316 6.18a190.697 190.697 0 0 0 10.313 11.938c5.966 6.415 11.333 13.212 16.625 20.187l1.589 2.072c13.787 18.03 26.087 36.905 36.536 57.053l1.828 3.515c4.205 8.28 7.704 16.71 11.047 25.36.707 1.762 1.415 3.524 2.125 5.285 4.896 12.359 8.946 24.744 11.875 37.715l.74 3.172c4.28 19.229 4.737 38.255 4.76 57.89l.014 3.668c.03 19.797-.956 39.609-6.077 58.832l-.754 2.912c-5.479 20.471-12.37 40.475-21.683 59.526l-1.988 4.176c-7.76 16.105-17.216 31.008-27.472 45.627-1.41 2.012-2.808 4.03-4.204 6.052-5.252 7.548-10.926 14.597-16.954 21.536a291.868 291.868 0 0 0-4.066 4.855c-5.248 6.361-10.714 12.348-16.638 18.09a127.624 127.624 0 0 0-8.045 8.555c-3.734 4.32-7.812 8.18-12.008 12.047-4.626 4.299-9.22 8.596-13.625 13.125-3.364 3.416-6.936 6.324-10.766 9.203-2.263 1.756-4.368 3.616-6.484 5.547-5.121 4.614-10.579 8.753-16.07 12.91a622.233 622.233 0 0 0-4.875 3.75c-11.09 8.604-22.306 16.997-34.047 24.699-2.605 1.726-5.152 3.513-7.695 5.328-4.765 3.358-9.696 6.393-14.676 9.418-3.313 2.036-6.57 4.142-9.825 6.27a507.22 507.22 0 0 1-42.19 24.519c-4.059 2.111-8.062 4.315-12.065 6.528-22.724 12.54-46.08 23.558-69.75 34.165a1356.589 1356.589 0 0 0-9.631 4.385 159.251 159.251 0 0 1-11.301 4.653 159.53 159.53 0 0 0-12.715 5.414c-6.581 3.062-13.272 5.626-20.097 8.086-2.398.875-4.795 1.75-7.192 2.628l-3.473 1.27c-3.947 1.46-7.862 2.988-11.773 4.539-30.977 12.169-62.49 22.67-94.492 31.798-3.889 1.115-7.77 2.256-11.65 3.397-22.495 6.598-45.072 12.781-67.815 18.464-2.73.683-5.457 1.37-8.184 2.062-17.102 4.339-34.209 8.248-51.538 11.578-5.583 1.08-11.114 2.326-16.65 3.625-4.425 1.018-8.872 1.897-13.331 2.752l-2.812.543a499126812.939 499126812.939 0 0 1-12.08 2.315c-15.3 2.927-30.621 5.673-46.001 8.15-6.445 1.04-12.865 2.133-19.271 3.394-11.066 2.136-22.254 3.477-33.426 4.922l-3.544.461c-7.12.926-14.242 1.842-21.364 2.752-2.9.371-5.8.747-8.7 1.124-45.421 5.896-91.135 9.73-136.85 12.474-2.049.123-4.098.248-6.146.373-14.785.888-29.568 1.569-44.374 1.978l-2.335.065c-16.247.445-32.487.562-48.738.565-2.308.001-4.616.003-6.923.006-8.168.009-16.337.013-24.505.012-6.605 0-13.21.007-19.815.02-51.579.108-103.054-.5-154.518-4.33l-4.28-.31c-50.086-3.648-100.253-8.748-149.934-16.106-2.19-.324-4.382-.647-6.573-.969-36.977-5.428-73.692-11.678-110.306-19.216-4.803-.988-9.611-1.95-14.423-2.896-22.743-4.482-45.248-9.83-67.735-15.44l-2.046-.51C855.301 1012.538 820.116 1002 785 991l-3.53-1.104a3709.822 3709.822 0 0 1-9.97-3.146l-2.942-.923a240.046 240.046 0 0 1-14.53-5.128c-5.48-2.138-10.999-4.116-16.555-6.039l-2.558-.886a4617.57 4617.57 0 0 0-10.483-3.615c-9.547-3.28-18.937-6.668-28.176-10.745-4.41-1.915-8.888-3.624-13.375-5.344-10.596-4.061-21.015-8.29-31.166-13.37-4.53-2.251-9.104-4.286-13.787-6.195-13.204-5.406-25.893-11.795-38.624-18.22-2.419-1.22-4.84-2.433-7.263-3.646a7622.815 7622.815 0 0 1-8.822-4.428l-3.227-1.62C557.114 895.044 557.114 895.044 552 891v-2c5.141 1.615 10.048 3.64 15 5.75l2.548 1.078c3.756 1.59 7.506 3.19 11.245 4.82 15.787 6.867 32.004 12.423 48.28 18.002 3.481 1.195 6.959 2.4 10.436 3.606 32.656 11.323 65.51 22.555 99.077 30.885 6.039 1.52 12.057 3.116 18.077 4.71 2.201.584 4.404 1.164 6.607 1.745 6.67 1.763 13.32 3.564 19.94 5.51 6.784 1.954 13.617 3.406 20.54 4.769 9.725 1.959 19.406 4.04 29.063 6.313 7.986 1.873 15.95 3.595 24.027 5.039 6.225 1.13 12.409 2.477 18.596 3.797 17.253 3.647 34.57 6.705 52.001 9.351l7.955 1.22 5.685.869c6.155.94 12.302 1.922 18.445 2.932 22.378 3.664 44.777 6.574 67.312 9.071 5.15.573 10.298 1.158 15.447 1.74a6779.574 6779.574 0 0 0 16.345 1.835l2.15.24c4.623.52 9.23 1.117 13.842 1.734 10.554 1.365 21.173 1.975 31.788 2.675l6.764.455c4.713.317 9.427.63 14.14.94 4.765.315 9.53.634 14.294.958 26.128 1.775 52.208 3.464 78.396 3.956l7.629.163c7.707.157 15.414.283 23.121.4 1.373.02 2.746.042 4.118.063 24.046.365 48.084.592 72.132.374l3.068-.026c37.036-.327 73.96-1.794 110.932-3.974l3.195-.187c56.447-3.313 113.014-8.454 168.89-17.209 4.735-.73 9.475-1.418 14.217-2.1 33.22-4.784 66.204-10.376 99.1-17.042 3.499-.706 7-1.405 10.5-2.104 24.878-4.96 24.878-4.96 49.577-10.726 2.83-.71 5.661-1.407 8.493-2.103 6.492-1.6 12.98-3.218 19.466-4.841l3.45-.863c17.749-4.444 35.477-8.94 53.112-13.825l2.968-.815c16.591-4.588 32.882-10.046 49.186-15.55 6.7-2.258 13.412-4.475 20.127-6.686l9.578-3.163c2.058-.679 4.116-1.355 6.174-2.03 12.049-3.948 23.902-8.171 35.632-12.992 4.038-1.66 8.111-3.196 12.21-4.702 14.234-5.279 28.258-11.138 42.132-17.3a532.9 532.9 0 0 1 7.335-3.183c13.006-5.559 25.66-11.828 38.345-18.079 1.178-.58 2.355-1.16 3.569-1.756 7.921-3.9 15.835-7.817 23.744-11.744l2.549-1.264c17.648-8.761 34.57-18.396 51.293-28.79 3.775-2.326 7.585-4.587 11.403-6.841 8.766-5.18 17.195-10.698 25.522-16.552a650.104 650.104 0 0 1 7.659-5.225c9.512-6.418 18.886-12.874 27.883-20.003a461.97 461.97 0 0 1 5.972-4.579l2.274-1.724c1.452-1.1 2.906-2.198 4.36-3.294 4.238-3.222 8.283-6.596 12.265-10.128 2.3-2.023 4.677-3.939 7.07-5.85 8.702-7.087 16.82-14.73 24.691-22.727 1.853-1.82 3.752-3.487 5.747-5.148 4.768-4.08 8.931-8.724 13.174-13.337 3.003-3.264 6.024-6.44 9.263-9.476 4.346-4.252 7.838-9.17 11.4-14.077 2.523-3.46 5.112-6.767 7.96-9.965 3.496-3.937 6.636-8.055 9.702-12.332l1.679-2.335c6.081-8.553 11.69-17.385 17.134-26.353l1.103-1.808c9.758-16.127 18.6-33.413 24.897-51.192l1.132-3.13c6.255-17.423 11.033-34.522 13.868-52.87l.373-2.346c7.464-47.73 1.394-97.789-16.373-142.654l-.927-2.35c-13.37-33.4-31.81-64.254-54.807-91.884a255.747 255.747 0 0 1-4.844-6.094l-1.377-1.783a1478.505 1478.505 0 0 1-3.783-4.944c-8.537-10.625-18.382-20.251-28.008-29.876-1.89-1.892-3.771-3.792-5.652-5.692-5.938-5.964-11.854-11.692-18.578-16.784-2.005-1.578-3.758-3.255-5.524-5.093-4.152-4.277-8.805-7.842-13.5-11.5-1.065-.843-2.128-1.687-3.191-2.531-19.473-15.442-39.484-30.094-60.508-43.36a730.684 730.684 0 0 1-7.946-5.156c-9.62-6.317-19.26-12.42-29.355-17.953v-1z" fill="#1685CA"/><path d="M1058.439-.502c3.832-.002 7.663-.008 11.495-.016a17426.762 17426.762 0 0 1 40.618-.038h2.072c10.29.002 20.58-.022 30.87-.061C1208.236-.862 1272.501-.015 1337 6l7.472.682c11.458 1.053 22.898 2.192 34.322 3.571 4.591.553 9.183 1.1 13.775 1.646 30.913 3.68 61.774 7.573 92.474 12.772 3.178.534 6.358 1.048 9.539 1.563A2452.81 2452.81 0 0 1 1517 30l2.226.383c18.379 3.173 36.718 6.485 54.961 10.367l2.036.432c6.264 1.337 12.502 2.728 18.703 4.334 4.318 1.103 8.624 1.956 13.015 2.718 12.163 2.168 24.092 5.446 36.05 8.517 3.206.822 6.413 1.634 9.62 2.448 14.033 3.576 28.01 7.307 41.94 11.268 5.34 1.515 10.704 2.937 16.074 4.345 10.469 2.8 20.755 6.142 31.05 9.513 7.222 2.364 14.46 4.632 21.762 6.737 8.225 2.399 16.197 5.339 24.195 8.402 8.695 3.323 17.467 6.383 26.288 9.354a264.998 264.998 0 0 1 18.288 6.999c3.885 1.646 7.807 3.193 11.73 4.745 3.69 1.474 7.376 2.955 11.062 4.438l3.177 1.277c20.563 8.298 40.725 17.363 60.823 26.723l3.137 1.46A1143.5 1143.5 0 0 1 1939 162l2.059.996c8.004 3.889 15.837 7.996 23.557 12.422 6.771 3.86 13.694 7.423 20.643 10.952l2.612 1.345 2.342 1.191C1992 190 1992 190 1993 192c-7.951-2.498-15.649-5.582-23.374-8.694a3526.57 3526.57 0 0 0-7.09-2.843c-6.448-2.584-12.893-5.166-19.282-7.893-29.88-12.726-61.327-22.085-92.25-31.93-1.317-.42-2.633-.842-3.948-1.266-11.634-3.744-23.383-7-35.181-10.187l-5.845-1.585A11109.05 11109.05 0 0 0 1789 123l-2.421-.653a7870.602 7870.602 0 0 0-17.74-4.76c-15.536-4.135-31.124-7.825-46.839-11.212l-3.002-.647c-4.178-.9-8.357-1.8-12.536-2.695a3105.005 3105.005 0 0 1-15.363-3.325c-29.681-6.517-59.443-11.67-89.487-16.22-6.282-.957-12.547-1.966-18.8-3.101-20.3-3.669-40.7-6.155-61.187-8.512l-2.184-.251a4758.226 4758.226 0 0 0-25.785-2.893c-3.721-.407-7.442-.818-11.161-1.238-24.937-2.808-49.884-4.818-74.921-6.49-3.809-.257-7.617-.519-11.425-.781-4.638-.32-9.276-.636-13.915-.952l-2.565-.175a3711.713 3711.713 0 0 0-18.906-1.238c-12.313-.774-24.618-1.137-36.95-1.392l-5.992-.13c-4.161-.09-8.323-.179-12.485-.265-5.253-.11-10.506-.224-15.759-.34-31.785-.708-31.785-.708-63.577-.73l-3.09.03c-7.533.082-15.065.204-22.598.345l-3.499.065c-23.958.458-47.883 1.329-71.813 2.56l-3.085.158C1030.53 62.882 939.288 72.662 780 103l-3.934.857c-37.31 8.16-74.46 17.237-111.066 28.143l-2.203.655a2994.731 2994.731 0 0 0-27.043 8.193c-3.624 1.112-7.25 2.212-10.879 3.308-16.281 4.934-32.34 10.319-48.241 16.366-6.8 2.573-13.657 4.985-20.509 7.415C545.338 171.774 534.622 175.73 524 180l-2.728 1.09c-2.926 1.172-5.85 2.352-8.772 3.535l-2.716 1.092c-4.307 1.757-8.495 3.61-12.628 5.744-3.746 1.916-7.519 3.488-11.46 4.96-6.811 2.558-13.296 5.621-19.821 8.829l-7.125 3.469-3.484 1.699a864.164 864.164 0 0 1-11.069 5.247 439.33 439.33 0 0 0-22.007 11.038 434.989 434.989 0 0 1-13.878 7.11c-15.952 7.899-31.397 16.642-46.497 26.06a403.653 403.653 0 0 1-6.94 4.19c-16.842 10.099-33.305 20.781-48.926 32.699-3.43 2.603-6.906 5.14-10.387 7.675-10.442 7.642-20.615 15.491-30.44 23.915-2.843 2.43-5.757 4.759-8.685 7.085-4.694 3.812-8.93 7.943-13.159 12.251-4.545 4.624-9.336 8.843-14.298 13.007-4.806 4.1-8.892 8.5-12.98 13.305a906.17 906.17 0 0 1-4.5 5.062l-2.094 2.348a163.238 163.238 0 0 1-5.832 5.93c-3.486 3.466-6.387 7.182-9.262 11.16a405.472 405.472 0 0 1-12.625 16.312c-3.957 4.89-7.578 9.818-10.855 15.2a247.886 247.886 0 0 1-4.383 6.883c-14.236 21.597-26.306 44.334-34.681 68.868-.751 2.187-1.53 4.363-2.315 6.538C122.36 532.303 118.09 552.902 116 574l-.286 2.822C113.631 599.229 114.653 621.78 118 644l.44 3.016C122.776 675.442 133.113 703.4 146 729l1.338 2.717c6.203 12.562 13.253 24.37 21.1 35.971a796.588 796.588 0 0 1 4.374 6.558C179.31 783.98 186.49 793.035 194 802l2.883 3.473c5.301 6.355 10.778 12.518 16.414 18.578 2.045 2.205 4.017 4.464 5.98 6.742 3.998 4.584 8.233 8.909 12.535 13.207l2.413 2.412c4.624 4.58 9.295 8.885 14.494 12.81 2.705 2.109 5.198 4.39 7.718 6.715 5.352 4.912 10.87 9.554 16.563 14.063l2.014 1.595c8.706 6.876 17.49 13.596 26.564 19.98 3.024 2.13 6 4.32 8.97 6.524 7.339 5.44 14.82 10.608 22.47 15.602 2.1 1.376 4.192 2.767 6.283 4.158 8.01 5.296 15.947 10.144 24.699 14.141l-1 2c-9.59-2.221-18.05-6.743-26.777-11.14a3951.19 3951.19 0 0 1-14.989-7.51 3778.287 3778.287 0 0 0-12.903-6.458c-3.341-1.667-6.679-3.34-10.015-5.014-1.584-.794-3.169-1.587-4.754-2.377-8.024-4.007-15.846-8.07-23.334-13.036-3.347-2.2-6.84-4.109-10.353-6.028-5.007-2.773-9.851-5.636-14.557-8.903-2.464-1.63-4.988-3.082-7.56-4.538-7.19-4.172-14.09-8.745-20.993-13.374a2351.128 2351.128 0 0 0-6.39-4.265c-16.061-10.718-31.84-21.854-46.723-34.173a459.784 459.784 0 0 0-7.715-6.184c-4.344-3.463-8.477-7.117-12.582-10.86a325.931 325.931 0 0 0-6.168-5.453 450.903 450.903 0 0 1-24.921-23.46c-2.039-2.004-4.131-3.84-6.329-5.665-4.066-3.479-7.262-7.492-10.585-11.671-2.357-2.898-4.82-5.647-7.352-8.391-7.437-8.104-14.217-16.65-20.758-25.488a321.146 321.146 0 0 0-4.422-5.805c-6.198-7.996-11.383-16.455-16.564-25.132-1.652-2.73-3.4-5.395-5.131-8.075C30.903 674.364 22.677 656.327 16 638l-.83-2.245C6.087 610.925.44 583.455 0 557l-.062-3.191c-.494-29.5 2.238-57.49 10-85.997l.98-3.615C13.081 456.526 15.802 449.294 19 442c.728-1.733 1.453-3.468 2.176-5.203 9.148-21.695 19.288-44.368 33.746-63.078 2.212-2.895 4.277-5.867 6.346-8.864 5.042-7.28 10.323-14.182 16.138-20.859 2.498-2.885 4.896-5.83 7.281-8.809 3.226-3.97 6.631-7.558 10.301-11.113 2.238-2.307 4.204-4.743 6.2-7.262 7.033-8.749 15.11-16.689 23.667-23.949 2.307-2.004 4.538-4.076 6.77-6.162 5.397-5.041 10.886-9.877 16.648-14.502 2.844-2.293 5.628-4.65 8.414-7.012 5.181-4.326 10.507-8.413 15.931-12.429 3.444-2.55 6.868-5.12 10.245-7.76 9.617-7.507 19.5-14.451 29.721-21.11 2.42-1.578 4.832-3.167 7.244-4.757a604.73 604.73 0 0 1 29.337-18.065c2.584-1.5 5.147-3.034 7.71-4.57 9.461-5.653 18.964-11.12 28.746-16.2 4.095-2.13 8.136-4.352 12.177-6.584 16.402-9.045 32.967-17.76 50.323-24.841 5.641-2.31 11.14-4.846 16.629-7.496 6.784-3.271 13.614-6.185 20.633-8.91 4.969-2.013 9.773-4.314 14.594-6.656 10.29-4.787 21.182-8.363 31.835-12.247 2.507-.914 5.014-1.83 7.52-2.746l1.9-.693a852.106 852.106 0 0 0 9.695-3.61c9.514-3.612 19.096-6.948 28.76-10.138l4.672-1.548c4.06-1.343 8.122-2.681 12.184-4.018 2.44-.804 4.88-1.61 7.32-2.416 17.733-5.857 35.457-11.596 53.505-16.418 3.49-.937 6.976-1.89 10.46-2.846a1685.029 1685.029 0 0 1 66.137-16.727c4.74-1.096 9.47-2.231 14.194-3.392C692.942 38.062 738.515 30.335 784 23l2.379-.385c48.134-7.773 96.819-13.868 145.473-17.158 4.48-.312 8.949-.71 13.42-1.127C983 .81 1020.555-.49 1058.439-.502z" fill="#1684CA"/><path d="M2053.043 330.918c1.38.015 2.76.035 4.139.06l2.276.03c2.495.032 4.989.073 7.483.113l5.175.072c4.55.063 9.098.132 13.647.202 4.638.07 9.276.135 13.915.2 9.107.13 18.215.265 27.322.405-.148 2.548-.3 5.095-.453 7.642l-.125 2.167c-.344 5.667-1.033 11.218-1.984 16.816a977.234 977.234 0 0 0-.817 4.977l-.361 2.135c-.318 2.765-.276 5.482-.26 8.263l2.34-.007c7.27-.02 14.539-.035 21.808-.045 3.737-.005 7.474-.012 11.212-.023 3.605-.011 7.21-.017 10.815-.02 1.377-.002 2.754-.005 4.131-.01 1.925-.008 3.85-.008 5.776-.009l3.324-.006C2185 374 2185 374 2187 375c-.413 8.469-1.261 16.848-2.375 25.25l-.345 2.815-.366 2.638-.314 2.364C2183 410 2183 410 2180 412c-2.663.234-2.663.234-5.908.211l-3.681-.01-3.977-.04c-1.359-.007-2.718-.012-4.076-.017-3.575-.013-7.15-.037-10.725-.065-5.725-.043-11.451-.073-17.177-.096-2.002-.01-4.004-.028-6.006-.045l-3.67-.02-3.244-.025c-2.53-.067-2.53-.067-4.536 1.107a141.66 141.66 0 0 0-1.508 8.996l-.395 2.74c-.416 2.899-.819 5.8-1.222 8.702l-.84 5.86c-.51 3.576-1.019 7.15-1.516 10.727l-.305 2.185c-.254 1.82-.254 1.82-.214 3.79l2.347-.007c7.284-.02 14.568-.035 21.853-.045 3.745-.005 7.49-.012 11.235-.023 3.612-.011 7.223-.017 10.835-.02 1.38-.002 2.761-.005 4.142-.01 1.928-.008 3.855-.008 5.783-.009l3.331-.006C2173 456 2173 456 2174 457c-.215 8.444-1.425 16.855-2.626 25.206l-.489 3.465c-.528 3.739-1.062 7.477-1.596 11.216l-1.118 7.886c-.778 5.496-1.56 10.993-2.345 16.488-.9 6.305-1.794 12.61-2.687 18.914-.867 6.12-1.736 12.241-2.606 18.362l-1.098 7.734c-.98 6.906-1.975 13.809-2.995 20.71-.42 2.884-.818 5.77-1.213 8.658-.241 1.653-.483 3.305-.726 4.958l-.285 2.231c-.742 4.822-.742 4.822-2.82 6.355-3.284 1.12-6.164 1.062-9.635 1.058l-2.213.005c-2.447.003-4.894-.008-7.342-.019h-5.263c-4.764.002-9.528-.01-14.292-.024-4.978-.013-9.956-.014-14.934-.016-9.428-.006-18.856-.023-28.283-.043-10.733-.022-21.465-.033-32.198-.043-22.079-.021-44.157-.056-66.236-.101l.943-8.076.266-2.284c.785-6.697 1.688-13.375 2.639-20.05l.523-3.71c.465-3.297.933-6.595 1.4-9.893.801-5.642 1.598-11.284 2.396-16.926l.934-6.603c1.385-9.786 2.753-19.575 4.11-29.365.612-4.405 1.226-8.81 1.84-13.215.49-3.524.98-7.049 1.465-10.574.54-3.925 1.088-7.849 1.636-11.773l.48-3.501c1.657-11.797 1.657-11.797 3.368-17.03 2.855-.952 4.605-1.122 7.563-1.114h2.79l3.002.016 3.082.005c3.25.005 6.5.018 9.75.03 2.203.006 4.405.01 6.608.014 5.402.011 10.803.028 16.205.049l.177-2.726c.473-6.983 1.05-13.904 2.01-20.836l.797-5.93.471-3.468c.656-4.848 1.295-9.698 1.936-14.548 4.971-37.583 4.971-37.583 7.492-54.295 1.181-7.076 1.181-7.076 1.117-14.197-2.88-2.72-2.88-2.72-6-5l-1-3c1-1 1-1 4.043-1.082zM2044 496l-4.437 31.188-1.397 9.766-1.1 7.776-.285 1.983c-.284 1.978-.563 3.957-.841 5.936l-.478 3.358c-.653 5.648-1.026 11.324-1.462 16.993l65-1c2.595-15.567 2.595-15.567 4.824-31.176l.458-3.451c.313-2.367.625-4.733.935-7.1.476-3.625.958-7.249 1.441-10.873l.916-6.95.436-3.265.395-3.038.35-2.655c.244-2.486.245-4.993.245-7.492h-65z" fill="#353435"/><path d="M881 330h88c-.638 7.014-1.34 13.883-2.41 20.824l-.4 2.643c-.414 2.741-.833 5.48-1.253 8.22l-.853 5.631c-.691 4.561-1.387 9.122-2.084 13.682l1.856-.018c14.88-.148 29.76-.29 44.64-.425 7.195-.066 14.39-.133 21.586-.205 6.27-.063 12.54-.122 18.809-.177 3.322-.03 6.643-.06 9.965-.096 3.702-.038 7.404-.07 11.107-.1l3.36-.04 3.039-.021 2.656-.025C1081 380 1081 380 1082 381c-.226 8.043-1.616 16.119-2.813 24.063l-.462 3.412-.495 3.248-.425 2.93c-.805 2.347-.805 2.347-2.55 3.479-2.546.98-4.416 1.114-7.14 1.109l-2.974.008-3.244-.022h-3.43c-3.744 0-7.488-.016-11.233-.032l-7.785-.008c-6.134-.007-12.268-.023-18.401-.043-6.985-.022-13.969-.033-20.953-.043-14.365-.021-28.73-.056-43.095-.101l-.24 1.718c-7.263 51.969-7.263 51.969-10.572 75.032a85685.479 85685.479 0 0 0-2.43 16.956c-.92 6.431-1.84 12.863-2.758 19.294l31-1c1.046 4.186.84 6.582.258 10.813l-.266 1.971a818.414 818.414 0 0 1-.57 4.115c-.296 2.093-.58 4.187-.863 6.28C969.044 565.24 969.044 565.24 968 569c-4.223.804-8.196 1.118-12.492 1.098l-3.633-.01-3.75-.025-3.82-.014c-3.102-.012-6.203-.028-9.305-.049l-.153 2.294c-.628 8.818-1.59 17.565-2.722 26.331l-.245 2.045a622.488 622.488 0 0 1-.747 5.932l-.441 3.51c-.761 3.178-1.072 4.028-3.692 5.888-3.087.367-3.087.367-6.934.356l-2.125.007c-2.316.003-4.632-.016-6.949-.035-1.607-.003-3.215-.005-4.823-.006a1936.6 1936.6 0 0 1-10.102-.04c-4.326-.03-8.652-.04-12.977-.044-3.319-.005-6.637-.014-9.955-.026l-4.787-.015c-2.224-.006-4.448-.02-6.673-.036l-3.842-.02C855 616 855 616 854 615c.198-9.416 1.686-18.815 3-28.125l.54-3.938c1.328-9.542 1.328-9.542 2.46-12.937l-1.86.016c-2.839.02-5.677.034-8.515.047l-2.926.025A149.402 149.402 0 0 1 828 569c.453-8.286 1.39-16.467 2.5-24.688l.396-2.97.385-2.791.346-2.51C832 534 832 534 833 532l32-1 2.012-14.484 3.338-24.038.328-2.362a170049.037 170049.037 0 0 1 2.307-16.617 9926.21 9926.21 0 0 1 3.1-22.214c.472-3.342.94-6.684 1.41-10.026.223-1.587.447-3.174.672-4.76.311-2.193.619-4.385.926-6.578l.532-3.77c.454-3.284.454-3.284.375-7.151l-1.871.003c-15.005.022-30.01.038-45.015.049-7.257.005-14.513.012-21.769.023-6.322.01-12.645.017-18.967.02-3.35 0-6.7.003-10.049.01-3.733.008-7.466.009-11.2.009l-3.39.01-3.063-.004-2.679.003C760 419 760 419 759 418c-.11-12.061 2.824-24.2 5-36 5.725-2.456 11.126-2.269 17.238-2.227h3.401c3.701 0 7.402.016 11.103.032l7.71.008c6.066.007 12.133.023 18.2.043 6.908.022 13.818.033 20.727.043 14.207.021 28.414.056 42.621.101 1.276-3.738 2.318-7.236 2.852-11.152l.39-2.854.383-2.932.406-2.92c1.786-10.649 1.786-10.649-2.23-20.28l-1.301-1.675c-4.5-5.993-4.5-5.993-4.5-8.187z" fill="#343435"/><path d="M1536 329c9.5-.023 19.001-.04 28.502-.052 4.411-.005 8.822-.012 13.234-.023 4.253-.011 8.506-.017 12.76-.02 1.626-.002 3.253-.005 4.879-.01 2.27-.008 4.54-.009 6.81-.009l3.923-.006C1609 329 1609 329 1610 330c-.085 9.93-2.492 20.448-4 30h52c1.252 3.757.622 6.702.004 10.512l-.34 2.206c-.361 2.325-.731 4.647-1.101 6.97a5754.82 5754.82 0 0 0-.737 4.728A3346.75 3346.75 0 0 1 1654 396c-4.687 1.841-8.863 2.278-13.841 2.227h-2.308c-2.5 0-5-.016-7.5-.032l-5.22-.008c-4.567-.008-9.134-.028-13.7-.05-4.666-.02-9.332-.03-13.997-.04-9.145-.02-18.29-.055-27.434-.097l-.823 3.742-1.084 4.91-.54 2.461c-1.25 5.647-2.655 11.218-4.303 16.762-1.228 4.142-2.25 7.752-2.25 12.125l78 1c0 11.25 0 11.25-.667 15.975l-.45 3.255-.5 3.47-.524 3.747a3827.75 3827.75 0 0 1-1.433 10.128c-.508 3.567-1.009 7.134-1.51 10.701-.635 4.511-1.271 9.022-1.91 13.533a8916.396 8916.396 0 0 0-4.386 31.368c-.669 4.84-1.342 9.677-2.015 14.516-.542 3.896-1.082 7.792-1.618 11.688-.506 3.681-1.018 7.361-1.535 11.04-.276 1.98-.547 3.96-.817 5.941-3.643 25.804-3.643 25.804-14.76 35.513-6.17 4.56-10.64 6.202-18.308 6.33l-3.214.06-3.435.051-3.543.063c-3.73.066-7.458.125-11.188.183l-7.591.131c-6.199.107-12.397.21-18.596.307l-1-2 1.215-1.363a408.67 408.67 0 0 0 3.64-4.18 159.168 159.168 0 0 1 4.508-4.945l2.387-2.637 2.234-2.383c7.002-10.236 6.634-28.225 8.263-40.175.86-6.311 1.737-12.62 2.612-18.93l.536-3.876c1.807-13.033 3.696-26.054 5.605-39.073l.465-3.177c.843-5.754 1.689-11.508 2.535-17.261h-23l-1.488 6.422c-3.07 13.11-6.337 26.172-9.567 39.242-1.907 7.72-3.81 15.44-5.715 23.16l-.564 2.289c-3.383 13.72-6.74 27.445-10.065 41.179a3213.16 3213.16 0 0 1-1.795 7.376 515.138 515.138 0 0 0-1.588 6.769l-.757 3.247-.64 2.826c-.934 2.832-1.634 4.44-3.821 6.49-6.121 1.545-12.562 1.128-18.84 1.098l-3.4-.005c-3.566-.005-7.132-.018-10.697-.03-2.426-.006-4.85-.01-7.276-.014-5.929-.011-11.858-.028-17.787-.049-1.255-3.765-.581-5.482.406-9.309l.485-1.908c.529-2.076 1.07-4.148 1.609-6.22l1.109-4.346c.756-2.968 1.516-5.934 2.28-8.9a3653.78 3653.78 0 0 0 4.799-18.88l.789-3.081a491.034 491.034 0 0 0 4.164-18c2.91-13.66 6.238-27.199 9.662-40.738 1.577-6.234 3.14-12.471 4.704-18.708l1.639-6.529c3.787-15.089 7.546-30.185 11.28-45.287.713-2.89 1.43-5.778 2.15-8.666 1-4.022 1.994-8.045 2.986-12.069l.907-3.63.816-3.324.715-2.887c.63-2.744.63-2.744.5-6.518h-21c.552-8.057 1.437-16.05 2.438-24.063l.37-3.101.376-2.934.33-2.64C1491 363 1491 363 1493 360c2.215-.399 2.215-.399 5-.432l3.155-.06 3.415-.02 3.49-.054c3.688-.054 7.376-.088 11.065-.122 2.496-.033 4.992-.067 7.488-.103A3809.37 3809.37 0 0 1 1545 359l.46-3.266c.362-2.499.75-4.994 1.165-7.484.01-5.455-4.081-8.925-7.559-12.734-1.997-2.432-2.47-3.552-3.066-6.516z" fill="#343334"/><path d="M1211 329h96c-.874 4.37-1.284 5.853-3.66 9.258l-1.645 2.38-1.757 2.487-1.78 2.559c-3.805 5.457-7.679 10.863-11.67 16.187-1.721 2.353-1.721 2.353-3.488 6.129h159c.925 4.627.906 7.171.258 11.727l-.543 3.875-.294 2a878.59 878.59 0 0 0-.862 6.07c-1.406 9.869-1.406 9.869-2.559 13.328-2.976 1.488-5.643 1.105-8.964 1.087l-2.198-.008c-2.442-.01-4.884-.028-7.326-.045l-5.237-.024c-3.766-.016-7.532-.036-11.299-.057a7290.42 7290.42 0 0 0-17.86-.071l-3.043-.01-6.16-.019c-13.865-.043-27.73-.094-41.596-.175a6881.86 6881.86 0 0 0-28.04-.108c-4.948-.01-9.896-.028-14.845-.068-4.654-.038-9.309-.052-13.964-.05a492.052 492.052 0 0 1-5.126-.035 423.713 423.713 0 0 0-6.997-.012l-3.955-.017c-4.893.884-6.806 3.581-9.752 7.358l-1.05 1.597-1.227 1.844-1.275 1.958-1.38 2.083c-1.449 2.191-2.89 4.387-4.331 6.584a7575.205 7575.205 0 0 1-5.664 8.583l-1.418 2.148c-4.195 6.342-8.479 12.62-12.798 18.878l-1.246 1.833C1220 460 1220 460 1218.676 461.522c-7.539 9.013-7.398 23.595-8.91 34.802-.2 1.457-.402 2.913-.603 4.37-.534 3.866-1.061 7.734-1.587 11.602-.548 4.02-1.102 8.04-1.656 12.06-1.21 8.802-2.414 17.605-3.615 26.408a35906.538 35906.538 0 0 1-3.456 25.265 230272.207 230272.207 0 0 1-2.571 18.858l-.353 2.61c-1.221 8.93-1.221 8.93-1.925 11.503-2.964 1.482-5.62 1.12-8.928 1.114h-2.159c-2.359 0-4.718-.009-7.077-.016a7682.06 7682.06 0 0 1-17.813-.029c-4.39-.01-8.781-.015-13.171-.02-8.618-.01-17.235-.028-25.852-.049-1.328-3.985-.6-7.378-.031-11.45l.35-2.621c.387-2.873.784-5.745 1.181-8.616l.813-5.994c2.38-17.469 4.918-34.915 7.501-52.355l.443-2.997c.275-1.858.551-3.715.829-5.571.665-4.18.665-4.18.914-8.396h-28l-1-2a2127.989 2127.989 0 0 1 19.516-28.914c2.393-3.49 4.778-6.985 7.156-10.484 6.658-9.796 13.367-19.552 20.177-29.243a1752.464 1752.464 0 0 0 12.276-17.734l1.614-2.36c.983-1.44 1.964-2.883 2.942-4.327.836-1.228 1.68-2.45 2.537-3.666 1.916-2.753 3.08-5.007 3.782-8.272l-3.566.219c-13.155.757-26.26.898-39.434.781-.801-3.36-1.064-6-.512-9.406l.393-2.508.431-2.586.397-2.492c.266-1.669.535-3.337.807-5.005.529-3.28 1.036-6.561 1.54-9.845l.538-3.507L1133 368l2.485-.018c7.726-.058 15.45-.13 23.176-.218 3.971-.044 7.943-.084 11.914-.11 3.833-.026 7.664-.067 11.496-.117 1.463-.017 2.926-.028 4.389-.035 2.047-.01 4.094-.037 6.14-.07l3.534-.033c2.869-.155 2.869-.155 4.692-1.827 1.198-1.604 2.375-3.195 3.479-4.865l1.262-1.899 1.308-1.995 1.341-2.043a2316.53 2316.53 0 0 0 2.61-3.99 214.99 214.99 0 0 1 2.975-4.37c1.867-2.74 3.168-4.738 3.324-8.098-1.49-3.064-3.67-4.982-6.125-7.312v-2z" fill="#343435"/><path d="M1672 329h74c-.745 4.472-1.541 7.887-3.066 12.055l-1.221 3.36-1.275 3.46-1.288 3.531c-1.045 2.867-2.095 5.731-3.15 8.594l3.182-.007c9.874-.02 19.749-.035 29.623-.045 5.077-.005 10.154-.012 15.23-.023 4.896-.011 9.792-.017 14.687-.02 1.872-.002 3.744-.005 5.616-.01 2.612-.008 5.225-.009 7.838-.009l2.369-.01c5.34.01 5.34.01 6.455 1.124-.055 7.9-1.314 15.82-2.438 23.625l-.37 2.657-.376 2.507c-.108.74-.217 1.479-.33 2.24C1817 394 1817 394 1815 397c-2.383.512-2.383.512-5.125.688l-2.758.199L1805 398l-.22 1.708c-1.88 14.513-3.77 29.026-5.777 43.523-.297 2.164-.589 4.328-.875 6.494-.424 3.196-.866 6.39-1.312 9.584l-.373 2.904c-1.124 7.829-3.684 13.94-8.615 20.154l-1.75 2.227-1.828 2.281-1.904 2.412c-3.71 4.691-7.456 9.353-11.21 14.01-3.581 4.531-7.073 9.132-10.57 13.729l-1.613 2.119-1.53 2.037C1756 523 1756 523 1753.548 525.574c-2.21 3.465-1.373 5.469-.547 9.426 1.215 2.964 1.215 2.964 2.852 5.824l1.808 3.325 1.965 3.538c.676 1.235 1.35 2.47 2.024 3.707 1.404 2.574 2.812 5.145 4.224 7.715 2.074 3.784 4.114 7.586 6.143 11.395l.978 1.836a34757 34757 0 0 1 1.929 3.623c4.692 8.805 9.42 17.587 14.377 26.247 5.7 9.97 5.7 9.97 5.7 13.79a780.274 780.274 0 0 1-41.25 1.125l-2.139.008c-2.021.005-4.043.003-6.064 0l-3.536-.004c-4.82-.207-4.82-.207-7.011-1.129-1.261-1.667-1.261-1.667-2.332-3.832-.403-.793-.806-1.586-1.22-2.404l-1.26-2.577c-.881-1.74-1.764-3.48-2.649-5.218l-1.304-2.578c-2.092-4.049-4.415-7.943-6.762-11.848-1.617-2.792-3.056-5.646-4.473-8.543-2.699.35-3.77.731-5.57 2.828l-1.555 2.422a215.508 215.508 0 0 1-8.75 12.188l-1.274 1.648c-13.722 17.66-13.722 17.66-17.59 18.532-3.187.373-6.242.502-9.45.496h-3.639l-3.883-.016a5043.214 5043.214 0 0 1-14.515-.029c-3.58-.01-7.16-.015-10.739-.02-7.012-.01-14.023-.028-21.035-.049.635-3.527 1.178-5.684 3.52-8.426l1.58-1.89 1.713-1.996c1.19-1.424 2.377-2.85 3.562-4.278l1.832-2.206c2.806-3.45 5.46-7.006 8.105-10.579A517.322 517.322 0 0 1 1651 570c6.226-7.69 12.368-15.389 18.129-23.438 3.597-4.925 7.343-9.826 11.484-14.308 2.157-2.339 3.33-3.788 3.722-6.991-.404-3.936-1.813-6.818-3.702-10.216l-1.062-1.98a828.808 828.808 0 0 0-3.446-6.317A2091.416 2091.416 0 0 0 1667 490l-1.625-2.966a1298.84 1298.84 0 0 0-11.2-19.971l-1.417-2.501c-.897-1.58-1.8-3.157-2.713-4.73l-1.21-2.137-1.076-1.874C1647 454 1647 454 1647 450c7.562-.05 15.124-.086 22.687-.11 2.571-.01 5.142-.024 7.714-.04 3.7-.025 7.402-.037 11.103-.045l3.47-.032c10.853-.001 10.853-.001 16.026 2.227 1.68 1.876 1.68 1.876 2.8 4.14l1.272 2.497 1.24 2.613 1.3 2.566c2.147 4.309 4.019 8.555 5.388 13.184 3.573-.227 4.803-.794 7.316-3.422 7.225-10.138 9.083-20.436 10.684-32.578l.526-3.895a1715.19 1715.19 0 0 0 3.057-24.025c.417-3.08.417-3.08.969-5.55.651-3.25.651-3.25.448-9.53h-21c-2.243 6.729-2.243 6.729-4.465 13.465-7.34 22.34-7.34 22.34-9.535 24.535-1.81.094-3.625.117-5.438.114h-3.518l-3.83-.016-3.896-.005c-3.424-.003-6.849-.013-10.273-.024-3.492-.01-6.985-.015-10.477-.02-6.856-.01-13.712-.028-20.568-.049-1.42-4.49-.022-7.78 1.5-12.07l.828-2.41c.584-1.691 1.173-3.38 1.766-5.068.884-2.516 1.754-5.036 2.62-7.557a665.902 665.902 0 0 1 9.847-26.604c2.448-6.237 4.63-12.54 6.689-18.916.65-1.993 1.3-3.985 1.953-5.977l.912-2.788c.817-2.41 1.7-4.78 2.62-7.153 1.316-3.596 1.77-4.975.265-8.457-2.375-2.708-2.375-2.708-5-5l-2-2v-3z" fill="#333334"/><path d="M505 336c.353 7.974-.834 15.612-2.047 23.463-.71 4.615-1.395 9.234-2.082 13.853l-.459 3.077c-1.665 11.22-3.213 22.457-4.758 33.695-.935 6.804-1.874 13.608-2.814 20.412l-.314 2.27c-3.223 23.325-6.49 46.643-9.759 69.961a46624.84 46624.84 0 0 0-2.14 15.295c-.855 6.106-1.71 12.212-2.567 18.318l-.948 6.774a4001.6 4001.6 0 0 1-2.656 18.7c-.316 2.206-.628 4.413-.935 6.62a2008.56 2008.56 0 0 1-1.494 10.449l-.435 3.184c-1.779 12.013-5.31 21.646-13.967 30.304-5.948 3.682-12.484 3.914-19.281 3.82l-2.387-.008c-2.486-.011-4.971-.036-7.457-.062-1.698-.01-3.396-.02-5.094-.027-4.135-.022-8.27-.057-12.406-.098.717-4.283 1.702-6.179 4.75-9.313 6.846-7.067 9.915-13.29 11.188-23l.456-3.121c.447-3.098.875-6.198 1.296-9.299.608-4.445 1.234-8.887 1.857-13.33.82-5.852 1.636-11.706 2.435-17.561l.382-2.785c.239-1.74.475-3.48.71-5.22l.325-2.366.28-2.06c.333-2.017.799-3.969 1.321-5.945l-2.422.219c-7.55.638-15.003.88-22.578.781l-.284 2.818c-1.423 13.373-3.753 26.568-6.091 39.807l-1.172 6.7c-.578 3.309-1.158 6.618-1.743 9.926-.972 5.49-1.92 10.983-2.82 16.486l-.539 3.239a847.876 847.876 0 0 0-.988 6.1l-.455 2.722-.387 2.396L396 615c-3.436 1.718-7.384 1.12-11.164 1.098l-2.75-.005c-2.903-.005-5.807-.018-8.711-.03-1.966-.006-3.932-.01-5.898-.014-4.826-.011-9.651-.028-14.477-.049 1.32-13.322 3.546-26.437 5.91-39.61 1.134-6.323 2.252-12.65 3.371-18.976.23-1.291.458-2.583.694-3.913 2.261-12.781 4.431-25.577 6.587-38.376a6175.836 6175.836 0 0 1 9.63-55.438c2.982-16.773 5.783-33.57 8.487-50.39a1360.592 1360.592 0 0 1 6.774-38.673c3.438-15.136 3.438-15.136-.453-29.624v-4a209395.004 209395.004 0 0 1 53.205-.573 62873.503 62873.503 0 0 1 22.51-.242c11.762-.129 23.522-.218 35.285-.185zm-66 39c-1.68 3.36-2.41 5.415-3.035 8.992l-.514 2.887-.514 2.996-.525 2.973c-.332 1.887-.66 3.774-.983 5.663-.352 2.044-.729 4.083-1.113 6.122L432 407c.973 1.193.973 1.193 2.766 1.114l2.27-.016 2.45-.01 2.577-.026 2.587-.013c2.117-.012 4.233-.03 6.35-.049 2.212-5.631 3.44-11.065 4.188-17.063l.253-2c.544-4.727.559-9.119.559-13.937h-17zm-13.973 73.816c-1.53 4.744-2.371 9.517-3.152 14.434l-.512 3.027A282.306 282.306 0 0 0 419 484c3.646.029 7.292.047 10.938.063l3.154.025 2.998.01 2.777.016c2.117.125 2.117.125 3.133-1.114.845-4.494 1.423-9.035 2.063-13.563l.564-3.83c.893-6.26 1.62-12.282 1.373-18.607a433.855 433.855 0 0 0-9.313-.313l-2.67-.126c-4.956-.216-4.956-.216-8.99 2.255z" fill="#343334"/><path d="M725 336c.204 7.31-.58 14.207-1.66 21.43-.28 1.925-.558 3.85-.837 5.776-.304 2.093-.612 4.185-.92 6.278-1.018 6.914-2.016 13.831-3.015 20.748a9483.498 9483.498 0 0 0-7.396 52.045l-.498 3.56a67691.409 67691.409 0 0 0-4.455 31.93 15362.254 15362.254 0 0 1-5.42 38.59c-.515 3.632-1.026 7.266-1.531 10.9-.544 3.908-1.1 7.814-1.666 11.719a956.143 956.143 0 0 0-.839 6.02c-1.334 9.057-3.175 17.97-9.576 24.879l-1.894 2.117c-5.513 4.827-10.336 6.647-17.48 7.258l-2.31.23c-9.153.817-18.325.692-27.503.52-.586-1.84-.586-1.84-1-4 1.371-2.559 1.371-2.559 3.438-5.438l2.23-3.265a143.769 143.769 0 0 1 4.508-6.094c6.925-9.65 7.873-19.66 9.316-31.208.54-4.305 1.148-8.599 1.762-12.893 1.007-7.071 1.998-14.144 2.973-21.22l.413-3.001a64262.291 64262.291 0 0 1 6.217-45.144c2.458-17.829 4.933-35.653 7.735-53.43 1.009-6.43 1.827-12.825 2.408-19.307l-14 1c-3.879 24.341-7.254 48.755-10.69 73.162-1.343 9.528-2.69 19.055-4.035 28.582l-1.497 10.604a26603.144 26603.144 0 0 1-9.91 69.574c-.16 1.105-.318 2.21-.482 3.35-.933 6.52-1.85 13.04-2.751 19.565-.559 4.042-1.122 8.082-1.686 12.123-.372 2.687-.736 5.374-1.1 8.061l-.658 4.713-.28 2.13c-.483 3.394-.968 5.222-2.911 8.136-8.3 2.116-17.728.93-26.188.563-1.346-.054-2.693-.107-4.04-.159-3.258-.128-6.515-.263-9.772-.404.756-10.795 2.4-21.484 3.914-32.191l.887-6.32c.78-5.562 1.565-11.124 2.35-16.686.77-5.466 1.538-10.932 2.306-16.399.92-6.548 1.84-13.096 2.763-19.643 1.968-13.976 3.928-27.952 5.883-41.93 3.388-24.232 6.803-48.46 10.23-72.688a131139.658 131139.658 0 0 0 4.156-29.413l.369-2.606.362-2.566.71-4.997c.633-4.44 1.25-8.88 1.846-13.324l.395-2.887c.25-1.827.495-3.655.734-5.483.584-4.231 1.233-7.97 3.095-11.867a142807.027 142807.027 0 0 1 45.834-.573 42912.79 42912.79 0 0 1 19.394-.242c10.591-.135 21.18-.216 31.772-.185zM1268.544 420.877l3.46.003 3.957-.004 4.381.01h4.582c4.159 0 8.317.006 12.476.013 4.342.006 8.683.006 13.025.008 8.227.003 16.454.011 24.681.021 9.364.011 18.728.017 28.092.022 19.267.01 38.535.028 57.802.05-.809 5.91-1.627 11.818-2.454 17.725-.28 2.009-.557 4.019-.832 6.029-.395 2.89-.8 5.78-1.206 8.668l-.367 2.721-.363 2.547-.31 2.234c-.826 3.664-1.752 5.613-4.936 7.672l-3.106 1.54-3.443 1.738-1.818.898c-3.096 1.53-6.173 3.098-9.25 4.666l-1.831.929c-5.903 3.016-11.548 6.353-17.166 9.863-2.918 1.77-2.918 1.77-6.242 3.32-2.98 1.22-2.98 1.22-3.676 4.45h73a435.124 435.124 0 0 1-3 23.5l-.54 3.57-.522 3.399-.473 3.076C1432 532 1432 532 1431 534h-72l-3 27c-4.941 33.472-4.941 33.472-17.875 44.438-15.995 7.997-39.335 4.686-56.687 4.625-2.476-.006-4.952-.01-7.428-.014-6.004-.011-12.007-.028-18.01-.049 5.378-9.149 13.266-16.413 20.863-23.738A180.182 180.182 0 0 0 1282 581l1.904-1.987c5.38-6.15 6.553-11.837 7.471-19.825l.457-3.33c.97-7.282 1.557-14.522 2.168-21.858h-74c-1.222-3.665-.67-6.472-.074-10.187l.326-2.118c.23-1.477.463-2.953.699-4.428.36-2.257.704-4.516 1.047-6.775.225-1.435.45-2.87.678-4.304l.31-2.046c.548-3.356 1.091-5.258 3.014-8.142 3.05-.399 3.05-.399 7.02-.432l2.188-.031c2.392-.03 4.783-.04 7.175-.049l4.969-.054c4.363-.048 8.726-.077 13.089-.104 4.45-.03 8.901-.076 13.352-.121 8.736-.086 17.471-.153 26.207-.209l.49-2.28c1.936-8.12 1.936-8.12 4.692-11.003l2.545-1.283 2.855-1.517 3.043-1.48c2.079-1.09 4.157-2.183 6.234-3.277l3.131-1.6c4.373-2.266 8.634-4.7 12.885-7.185l2.159-1.217c3.985-2.191 3.985-2.191 5.966-6.158h-83c-1.247-3.741-.64-6.679-.04-10.477l.334-2.2c.234-1.531.471-3.063.712-4.594.368-2.35.725-4.704 1.08-7.057l.687-4.461.326-2.143c.955-6.022.955-6.022 4.445-6.191z" fill="#333334"/><path d="M542 329c2.215-.36 2.215-.36 5-.34h3.155l3.415.047 3.49.013c3.688.017 7.376.054 11.065.092 2.496.016 4.992.03 7.488.042 6.13.033 12.258.083 18.387.146-.56 8.942-1.586 17.717-3 26.563l-.54 3.478c-1.425 9.093-1.425 9.093-2.46 12.959l3.902-.035 5.035-.027 2.577-.026 2.45-.01 2.27-.016C606 372 606 372 607 373c-.055 6.752-1.347 13.489-2.5 20.125l-.396 2.299c-.98 5.451-.98 5.451-2.104 6.576-2.859.237-5.699.422-8.563.563l-2.443.13c-1.998.107-3.996.207-5.994.307-2.168 9.788-3.351 19.69-4.625 29.625l-.695 5.355c-.564 4.34-1.123 8.68-1.68 13.02l3.438-.254 4.562-.308 2.254-.17c5.076-.331 9.716-.04 14.746.732-1.436 24.873-1.436 24.873-4 30l-40 1c-2.656 6.64-5.122 13.138-7.25 19.938l-.899 2.843c-2.336 7.441-4.537 14.92-6.726 22.406C540.111 540.918 535.61 554.46 531 568l21-2c.784-3.137 1.19-5.633 1.373-8.81l.172-2.883.174-3.1.19-3.214c.2-3.393.396-6.787.591-10.18.195-3.376.392-6.752.59-10.128.125-2.099.246-4.198.365-6.297.342-5.825.848-11.594 1.545-17.388 4.236-.168 8.471-.328 12.708-.482 1.441-.054 2.882-.109 4.324-.166 2.07-.082 4.14-.157 6.21-.23l3.777-.144C587 503 587 503 589 504c.285 17.674-.541 35.297-1.332 52.948-.14 3.159-.277 6.317-.412 9.476a11186.432 11186.432 0 0 1-.595 13.638c-.325 7.463-.69 14.924-1.146 22.38l-.225 3.744C585 609 585 609 584 610a168.29 168.29 0 0 1-7.316.098l-2.216-.005c-2.343-.005-4.687-.018-7.03-.03A4809.622 4809.622 0 0 1 551 610v-13l-3 1a128.77 128.77 0 0 1-5.227.48l-3.24.243-3.513.25-3.64.264c-2.55.185-5.102.367-7.653.547-3.854.274-7.708.558-11.561.843-12.405.897-24.725 1.714-37.166 1.373 1.174-16.732 4.126-31.911 10.09-47.601 2.867-7.552 5.537-15.172 8.187-22.801l.896-2.576c1.231-3.543 2.463-7.086 3.688-10.631 6.327-18.291 6.327-18.291 10.098-26.69 1.334-3.46 2.142-7.104 3.041-10.701h-19c.45-4.251.909-8.5 1.375-12.75l.383-3.656.39-3.516.35-3.237c.483-2.733.896-4.583 2.502-6.841 2.869-1.17 5.66-1.106 8.73-1.063l2.682.024 2.776.039c1.826.025 3.653.046 5.48.063l2.446.035c1.899.112 1.899.112 2.886-1.098.297-1.468.539-2.946.756-4.428l.425-2.851.448-3.1.466-3.157c.493-3.342.98-6.684 1.467-10.026l.999-6.78c.817-5.552 1.63-11.105 2.439-16.658h-18c-1.707-5.12-.048-10.32.813-15.563l.54-3.521c.18-1.108.358-2.216.542-3.357l.495-3.085C515 374 515 374 517 372c2.9-.307 5.718-.512 8.625-.625l2.43-.117c1.981-.095 3.963-.177 5.945-.258l.335-2.18c2.595-16.863 2.595-16.863 3.133-20.321.362-2.384.709-4.77 1.04-7.158l.5-3.517.434-3.173C540 332 540 332 542 329z" fill="#343435"/><path d="m1856.829 420.88 2.415.006h2.73l2.967.016 3.023.005c3.2.005 6.399.018 9.599.03A8778.706 8778.706 0 0 1 1900 421a1714.25 1714.25 0 0 1-.657 56.55l-.202 7.477c-.174 6.449-.353 12.898-.533 19.347-.184 6.624-.363 13.25-.543 19.874-.35 12.917-.707 25.835-1.066 38.752 2.982-.239 2.982-.239 6-2 1.565-3.184 2.233-6.55 3-10 .462-1.785.928-3.57 1.397-5.354.486-1.94.97-3.882 1.45-5.824l.81-3.242c.876-3.51 1.748-7.02 2.62-10.53l1.842-7.382c1.449-5.807 2.896-11.615 4.342-17.423 2.735-10.99 5.474-21.978 8.215-32.967.894-3.586 1.787-7.172 2.679-10.759A5453.512 5453.512 0 0 1 1934 439l.63-2.502a1145.25 1145.25 0 0 1 1.646-6.411l.879-3.413C1938 424 1938 424 1940 421c1.91-.36 1.91-.36 4.266-.34h2.67l2.884.047 2.951.013c3.118.017 6.236.054 9.354.093 2.11.015 4.221.028 6.332.04 5.181.034 10.362.084 15.543.147.979 4.26.782 6.621-.562 10.813-1.967 6.48-3.689 12.988-5.313 19.562l-.772 3.113c-.524 2.116-1.048 4.234-1.57 6.35-1.252 5.057-2.518 10.11-3.783 15.162l-1.5 6-3.75 15-1.498 5.993a9740.844 9740.844 0 0 1-3.787 15.112A2672.665 2672.665 0 0 0 1952 557l3.594-.496c3.655-.457 7.218-.608 10.906-.566l3.156.027L1972 556c.253 7.662-.72 14.882-1.937 22.438l-.553 3.583c-1.37 8.698-1.37 8.698-2.51 10.979-2.798.933-5.085 1.3-8.002 1.6l-3.11.326-3.384.344-3.526.366c-2.502.26-5.004.518-7.506.775-6.546.672-13.091 1.356-19.636 2.038l-3.92.408c-10.08 1.05-20.156 2.14-30.228 3.268l-4.194.467c-6.59.736-13.177 1.485-19.763 2.252-3.286.38-6.571.757-9.857 1.133-1.55.178-3.1.36-4.65.543-8.766 1.04-17.38 1.746-26.224 1.48.616-5.094 1.255-10.183 1.917-15.271.221-1.732.436-3.464.645-5.197.3-2.49.625-4.976.954-7.462l.268-2.355c.303-2.183.303-2.183 1.216-5.715 2.736-1.83 5.079-2.275 8.328-2.414l2.422-.117 2.5-.094 2.547-.117c2.067-.094 4.135-.177 6.203-.258l.025-1.724c.44-30.655 1.05-61.301 1.91-91.947l.192-6.93c.761-27.597.761-27.597 1.373-39.399l.107-2.194c.331-5.736.331-5.736 3.222-5.926zM965 431h74c1.987 3.975 2.484 6.469 3.002 10.823l.253 2.074c.278 2.288.545 4.576.811 6.865l.591 4.904c.533 4.42 1.057 8.842 1.579 13.263.545 4.606 1.099 9.21 1.652 13.816l.676 5.625.34 2.834 1.03 8.607a8110.794 8110.794 0 0 0 4.726 38.697l.635 5.111c.808 6.494 1.616 12.987 2.43 19.48.468 3.75.935 7.498 1.4 11.247.17 1.368.34 2.735.513 4.102.234 1.861.464 3.723.695 5.584l.393 3.147c.255 2.63.326 5.181.274 7.821-3.431 1.144-6.099 1.141-9.719 1.161l-2.055.015c-2.242.015-4.484.022-6.726.027l-4.674.017c-3.265.01-6.53.017-9.795.02-4.186.006-8.373.03-12.56.058-3.216.019-6.433.024-9.65.026-1.544.003-3.088.01-4.632.024-2.157.017-4.313.015-6.47.008l-3.721.011C987 596 987 596 985.136 594.78c-1.435-2.248-1.723-3.948-2.036-6.598l-.379-3.031-.377-3.35-.435-3.57c-.315-2.595-.625-5.19-.927-7.788a2727.11 2727.11 0 0 0-1.494-12.532c-.55-4.556-1.1-9.113-1.645-13.67a4849.983 4849.983 0 0 0-4.428-35.705c-.383-3.007-.764-6.014-1.145-9.02l-.38-3-.759-5.982c-.626-4.938-1.254-9.876-1.886-14.814-.601-4.698-1.196-9.397-1.786-14.097-.22-1.74-.441-3.478-.665-5.216-.31-2.402-.611-4.805-.911-7.208l-.274-2.08C964.937 441.63 965 436.648 965 431z" fill="#343334"/><path d="m797.884 430.876 2.114.01h2.217c2.43 0 4.86.009 7.289.016l5.04.005c4.43.003 8.861.013 13.292.024 4.517.01 9.035.015 13.553.02 8.87.01 17.74.028 26.611.049-.761 4.076-1.94 7.655-3.484 11.512l-.763 1.916c-.545 1.369-1.091 2.737-1.64 4.105-1.491 3.722-2.968 7.45-4.445 11.178l-.927 2.337c-3.126 7.897-6.16 15.827-9.178 23.765a4857.238 4857.238 0 0 1-13.875 36c-3.699 9.488-7.39 18.977-11 28.5a2935.628 2935.628 0 0 1-8.375 21.812l-1.082 2.802c-6.933 17.775-6.933 17.775-9.231 20.073-2.3.094-4.604.117-6.906.114h-2.188c-2.397 0-4.794-.009-7.191-.016l-4.973-.005c-4.372-.003-8.743-.013-13.114-.024-4.458-.01-8.915-.015-13.372-.02-8.752-.01-17.504-.028-26.256-.049.706-4.586 1.823-8.544 3.512-12.875l.76-1.959c.53-1.366 1.064-2.73 1.6-4.094.801-2.036 1.593-4.075 2.384-6.115 2.542-6.53 5.171-13.01 7.955-19.441 2.108-4.871 4.042-9.735 5.727-14.766 2.813-8.163 5.904-16.198 9.072-24.23 1.083-2.756 2.154-5.516 3.224-8.278 6.532-16.825 6.532-16.825 9.891-24.43 2.716-6.215 4.92-12.555 7.116-18.966 2.214-6.413 4.613-12.735 7.134-19.033l1.048-2.63c2.948-7.295 2.948-7.295 8.461-7.307z" fill="#333334"/><path d="m1898.783 329.87 2.148-.005c2.355-.004 4.71-.001 7.065.002a5722.674 5722.674 0 0 1 15.158.002c4.394.006 8.786.003 13.18-.003 3.368-.004 6.737-.002 10.106 0 1.62 0 3.24 0 4.86-.002 2.262-.003 4.525.001 6.788.007l3.907.002C1965 330 1965 330 1967 331c-.625 12.436-2.331 24.665-4 37h35c0 5.24-.083 9.56-.84 14.617l-.533 3.586-.564 3.672-.553 3.742c-1.374 9.11-1.374 9.11-2.51 11.383-3.136 1.045-5.31 1.123-8.6 1.12l-3.53.004-3.879-.01h-4.08c-3.694 0-7.387-.006-11.081-.013-3.86-.006-7.72-.006-11.58-.008-7.31-.003-14.62-.011-21.929-.021-8.321-.011-16.643-.017-24.965-.022-17.118-.01-34.237-.028-51.356-.05-1.21-4.123-.666-7.649-.004-11.828l.34-2.27c.36-2.385.73-4.768 1.102-7.152l.736-4.86c.6-3.964 1.21-7.927 1.826-11.89l3.748-.076c4.571-.094 9.143-.194 13.714-.296 1.982-.044 3.964-.085 5.945-.125 2.843-.058 5.685-.122 8.527-.187l2.702-.05c4.003.297 4.003.297 7.364-1.266.863-4.64 1.428-9.316 2-14l.375-2.46c.286-3.017.068-5-1.871-7.364a119.829 119.829 0 0 0-3.813-3.5c-2.288-2.268-3.01-4.57-3.691-7.676 1.9-1.9 5.264-1.128 7.783-1.13z" fill="#353536"/><path d="M1725 745h406c1 2 1 2 0 12h-406v-12z" fill="#424042"/><path d="M409 745h406v12H409v-12z" fill="#414042"/><path d="M1609 699c7.347-.077 14.693-.129 22.04-.165 2.495-.015 4.99-.035 7.486-.061 3.602-.037 7.204-.054 10.806-.067 1.103-.015 2.205-.03 3.341-.047 8.14-.002 16.123.78 23.202 5.09 6.675 7.068 9.652 13.506 9.438 23.367-.673 6.208-2.655 11.835-7.438 16.008C1675 745 1675 745 1673 745c1.198 3.595 2.028 3.866 5.188 5.75 5.636 3.635 9.591 7.31 12.187 13.563 1.782 10.513.145 19.426-5.563 28.562-5.26 6.793-14.628 9.916-22.812 11.125-10.975 1.006-21.947 1.159-32.96 1.13-2.527-.005-5.054 0-7.581.007-1.61 0-3.22-.002-4.83-.004l-2.285.006c-5.229-.024-5.229-.024-6.344-1.139-.1-3.15-.136-6.279-.13-9.43l-.005-3c-.004-3.291-.001-6.583.002-9.875l-.003-6.834c-.001-4.784.001-9.567.006-14.35.005-6.14.002-12.28-.004-18.419a10720.3 10720.3 0 0 1 0-14.124c0-2.264 0-4.528-.002-6.791-.003-3.163.001-6.326.007-9.489l-.007-2.853.009-2.609.001-2.267C1608 702 1608 702 1609 699zm15 12v32c22.046 1.887 22.046 1.887 42-5l1.813-1.563c2.831-3.427 2.522-7.647 2.46-11.863-.447-4.213-1.616-6.235-4.273-9.574-6.288-3.43-11.984-4.128-19.05-4.098l-3.654.008-4.609.028L1624 711zm0 45v36l16.5.125 5.158.055 4.123.015 2.1.031c7.389.003 14.428-1.181 20.119-6.226 3.508-5.523 4.742-10.535 4-17-1.855-5.565-4.989-8.297-10-11-8.577-2.643-17.172-2.224-26.063-2.125L1624 756z" fill="#3F3E40"/><path d="M1060 699c7.52-.07 15.04-.123 22.56-.155 3.493-.016 6.985-.037 10.478-.071 4.026-.04 8.053-.054 12.08-.067 1.238-.015 2.477-.03 3.754-.047 12.163-.002 22.011 2.495 30.94 11.028 4.6 6.963 6.377 15.026 5.188 23.312-2.117 7.045-5.83 12.887-12 17v4l2.25 1.25c3.893 2.477 5.341 5.483 6.75 9.75.826 5.207 1.205 10.433 1.563 15.688.147 2.106.3 4.212.468 6.318.152 1.901.285 3.804.417 5.708.58 3.449 1.681 5.381 3.552 8.286v3a597.08 597.08 0 0 1-7.875.688l-2.262.22c-2.168.166-2.168.166-5.863.092-2.22-3.33-2.317-4.717-2.527-8.629l-.213-3.389c-.13-2.335-.258-4.671-.383-7.007-.495-7.792-1.027-15.904-5.627-22.475-5.688-3.792-11.869-3.779-18.465-3.695l-2.593.008c-2.71.011-5.42.036-8.13.062-1.847.01-3.694.02-5.54.027-4.508.022-9.015.057-13.522.098l.016 3.824c.018 4.67.03 9.34.039 14.01.005 2.024.012 4.047.02 6.07.013 2.905.018 5.809.023 8.713l.015 2.753v2.547l.007 2.248C1075 802 1075 802 1074 804c-2.906.45-2.906.45-6.5.688l-3.594.261L1061 805c-1-1-1-1-1.123-2.763l.003-2.343-.004-2.682.01-2.964v-3.104c0-3.404.009-6.807.016-10.21l.005-7.058c.003-6.207.013-12.413.024-18.619.01-6.327.015-12.654.02-18.982.01-12.425.028-24.85.049-37.275zm15 11v36c5.693.092 11.384.172 17.078.22 1.934.02 3.868.047 5.801.082 2.79.049 5.58.071 8.371.089l2.593.062c6.663.003 12.085-1.58 17.032-6.207 3.507-5.638 4.048-10.695 3.125-17.246-1.533-4.215-3.449-7.238-7-10-5.535-1.965-10.592-2.334-16.434-2.414l-2.66-.059c-2.781-.06-5.562-.106-8.343-.152-1.896-.038-3.79-.077-5.686-.117-4.626-.097-9.251-.177-13.877-.258z" fill="#3C3B3D"/><path d="m1403.688 697.938 3.011.027L1409 698a109.423 109.423 0 0 1 1.098 16.438l-.003 2.06c-.006 2.5-.02 5.001-.033 7.502l-.062 17 55 1 1-43c2.623-1.312 4.637-1.133 7.563-1.125l3.003-.008C1479 698 1479 698 1480 699c.097 1.351.126 2.707.127 4.062l.009 2.651-.007 2.932.006 3.069c.004 3.366.001 6.732-.002 10.098l.003 6.984c.001 4.886-.001 9.772-.006 14.658-.005 6.279-.002 12.557.004 18.836.004 4.809.002 9.618 0 14.427 0 2.316 0 4.632.002 6.947.003 3.23-.001 6.461-.007 9.691l.007 2.932-.009 2.651-.001 2.318C1480 803 1480 803 1479 804a167.62 167.62 0 0 1-6.563.563l-3.628.253L1466 805c-.952-2.855-1.122-4.605-1.114-7.563v-2.79l.016-3.002.005-3.082c.005-3.25.018-6.5.03-9.75.006-2.203.01-4.405.014-6.608.011-5.402.028-10.803.049-16.205-7.672-.025-15.344-.043-23.016-.055a5702.53 5702.53 0 0 1-7.837-.02c-3.746-.013-7.491-.018-11.237-.023l-3.564-.015h-3.275l-2.9-.007c-2.15-.123-2.15-.123-3.171 1.12a58.002 58.002 0 0 0-.098 4.105l.01 2.64.025 2.872.012 2.934c.016 4.16.044 8.32.072 12.479.018 3.029.03 6.058.042 9.087l.025 2.86.01 2.66.016 2.339C1410 801 1410 801 1409 804c-2.145.194-4.291.38-6.438.563l-3.62.316L1396 805c-1-1-1-1-1.123-2.763l.003-2.343-.004-2.682.01-2.964v-3.104c0-3.404.009-6.807.016-10.21l.005-7.058c.003-6.207.013-12.413.024-18.619.01-6.327.015-12.654.02-18.982.01-12.425.028-24.85.049-37.275 3.15-1.05 5.388-1.101 8.688-1.063z" fill="#3A383A"/><path d="M918 703c2.875 2.5 2.875 2.5 5 5l2.188 2.438c4.231 5.982 4.003 11.485 3.812 18.562h-11l-1.75-4.688c-2.772-6.962-2.772-6.962-8.55-11.46-10.871-4.542-21.258-5.586-32.376-1.13-4.403 2.42-5.757 5.576-7.324 10.278-.703 6.543-.703 6.543 1.625 12.438 6.157 4.05 12.057 5.524 19.188 6.937 32.502 6.849 32.502 6.849 40.898 17.871 4.508 7.584 4.284 15.866 2.848 24.367-1.945 7.08-6.176 12.238-12.332 16.149-9.705 5.151-18.904 6.584-29.79 6.488l-2.67.023c-10.651-.031-20.525-2.005-28.455-9.523-6.339-6.832-9.671-13.303-10.312-22.75l1-3c2.366-1.183 3.868-1.134 6.5-1.125l2.406-.008C861 770 861 770 863 771c.668 2.064 1.26 4.152 1.813 6.25 1.835 6.152 3.463 9.587 9.144 12.887 10.23 5.409 22.86 5.538 33.856 2.176 4.275-1.661 6.952-3.147 9.187-7.313l1.25-2.313c1.435-5.142 1.462-9.037-.625-13.875-7.762-8.316-19.944-9.846-30.597-12.216-12.915-2.903-25.104-6.21-33.028-17.596-2.925-5.85-1.505-15.218.125-21.375 2.352-6.745 6.783-12.834 12.875-16.625 16.498-6.964 35.407-7.802 51 2z" fill="#393738"/><path d="M1278.996 706.824c7.186 7.605 8.544 14.348 8.29 24.703-.628 7.633-2.67 15.004-8.286 20.473-8.452 6.31-16.748 8.263-27.094 8.414l-2.239.054c-2.722.062-5.445.109-8.167.157L1223 761l-1 43c-3.216.804-5.455 1.136-8.688 1.125l-2.386.008C1209 805 1209 805 1208 804a56.851 56.851 0 0 1-.127-4.062l-.009-2.651.007-2.932-.006-3.069c-.004-3.366-.001-6.732.002-10.098l-.003-6.984c-.001-4.886.001-9.772.006-14.658.005-6.279.002-12.557-.004-18.836-.004-4.809-.002-9.618 0-14.427 0-2.316 0-4.632-.002-6.947-.003-3.23.001-6.461.007-9.691l-.007-2.932.009-2.651.001-2.318C1208 700 1208 700 1209 699c2.21-.16 4.426-.252 6.64-.316l2.055-.063c1.446-.044 2.892-.085 4.338-.124 2.166-.058 4.332-.124 6.498-.19 39.845-1.188 39.845-1.188 50.465 8.517zM1223 711v35l17.375.313 5.42.137c8.635.128 16.015.033 23.205-5.45 3.884-4.57 3.496-10.168 3.352-15.934-.614-5.35-3.036-7.849-6.852-11.379-4.655-3.142-9.298-2.821-14.766-2.785l-2.404.005c-2.527.005-5.053.018-7.58.03-1.716.006-3.432.01-5.148.014-4.201.01-8.401.03-12.602.049z" fill="#3D3C3E"/><path d="M1021.75 701.375c8.624 5.739 14.976 13.351 17.25 23.625.125 2.938.125 2.938 0 5-10.068.781-10.068.781-13.313-1.938L1024 725c-4.394-7.231-8.409-12.844-16.813-15.313-11.51-2.306-22.03.167-31.921 6.372-4.093 3.507-6.163 8.06-8.266 12.941l-1.086 2.48c-5.455 15.037-3.524 32.488 2.672 46.899 3.956 7.333 9.297 11.104 16.976 13.933 8.527 1.736 18.698 2.311 26.52-1.945 7.348-5.237 10.456-12.202 13.656-20.39C1027 767 1027 767 1029 765c2.602-.195 2.602-.195 5.625-.125l3.04.055 2.335.07c2.006 5.582-.816 10.812-3 16-6.53 12.465-15.051 19.063-28.281 23.82-12.068 3.197-26.485 2.159-37.532-3.633-10.412-6.152-17.4-14.571-21.187-26.187-4.839-19.313-4.531-39.594 5.313-57.387C962.646 706.255 971.96 700.18 985 697l1.918-.563c11.317-2.378 24.815-.676 34.832 4.938z" fill="#393637"/><path d="m1506.941 697.902 3.621.035 3.63.028L1517 698l.018 2.615c.058 8.178.13 16.357.218 24.535.044 4.203.084 8.407.11 12.61.027 4.066.067 8.131.117 12.197.017 1.541.028 3.083.035 4.625.053 17.513.053 17.513 7.76 32.797 5.105 4.75 11.076 6.328 17.867 6.871 8.725-.563 16.703-2.787 22.875-9.25 4.736-6.774 5.103-14.126 5.205-22.22l.03-2.072c.032-2.235.057-4.47.081-6.704l.063-4.678c.055-4.086.105-8.17.153-12.256.05-4.176.106-8.353.161-12.529.108-8.18.21-16.36.307-24.541 4.342-2.288 7.1-2.237 12-2l2 1c.07 9.31.123 18.621.155 27.932.016 4.325.037 8.65.071 12.974.033 4.182.05 8.364.059 12.546.005 1.587.016 3.173.032 4.76.14 14.165-1.166 26.374-10.317 37.788-8.14 8.12-21.205 11.008-32.313 11.313-10.553-.197-23.144-2.56-30.757-10.461A93.206 93.206 0 0 1 1508 789l-1.813-2.563c-4.005-8.221-3.548-17.103-3.636-26.03-.022-1.517-.043-3.034-.066-4.55-.045-3.167-.084-6.334-.118-9.501-.044-4.042-.1-8.083-.162-12.124-.046-3.128-.087-6.256-.126-9.384-.018-1.49-.039-2.979-.06-4.468-.21-14.875-.21-14.875.981-21.38 1-1 1-1 3.941-1.098z" fill="#383638"/><path d="m1303.356 697.74 2.259.017 2.38-.006c2.605-.003 5.21.007 7.814.019h5.418c3.788.002 7.577.01 11.366.024 4.86.017 9.72.021 14.581.02 3.73 0 7.462.006 11.193.013l5.376.006c2.504.002 5.008.011 7.513.022l2.253-.002c3.103.02 5.523.158 8.491 1.147.223 1.435.428 2.873.625 4.312l.352 2.426C1383 708 1383 708 1381 711h-34l-1 93c-3.216.804-5.455 1.136-8.688 1.125l-2.386.008C1333 805 1333 805 1332 804a232.668 232.668 0 0 1-.114-8.65v-2.75c0-3.014.009-6.028.016-9.041l.005-6.251c.003-5.496.013-10.992.024-16.488.01-5.603.015-11.207.02-16.81.01-11.004.029-22.007.049-33.01h-35c-1.177-2.353-1.166-3.88-1.188-6.5l-.042-2.406c.514-4.675 3.626-4.33 7.586-4.354z" fill="#3D3C3E"/><path d="M1182 698c.023 13.803.04 27.607.052 41.41.005 6.409.012 12.818.023 19.226.011 6.18.017 12.359.02 18.538.002 2.363.005 4.726.01 7.09.008 3.297.009 6.594.009 9.892l.01 2.993-.004 2.707.003 2.366C1182 804 1182 804 1181 805c-1.976.125-3.957.176-5.938.188l-3.277.042C1169 805 1169 805 1167 803c-.249-1.852-.249-1.852-.247-4.144l-.013-2.63.017-2.892-.006-3.04c-.003-3.329.007-6.657.019-9.985v-6.913c.002-4.832.01-9.665.024-14.498.017-6.21.021-12.42.02-18.63 0-4.76.006-9.518.013-14.276.003-2.29.005-4.582.006-6.872.002-3.195.011-6.389.022-9.583l-.002-2.898.013-2.622.005-2.29C1167 700 1167 700 1168 699c4.74-.723 9.202-1.02 14-1z" fill="#3B393B"/><path d="M1058.439-.502c3.832-.002 7.663-.008 11.495-.016a17426.762 17426.762 0 0 1 40.618-.038h2.072c10.29.002 20.58-.022 30.87-.061 71.1-.27 141.783.582 212.506 8.617v1c-4.312.029-8.625.047-12.938.062l-3.732.026-3.545.01-3.285.016C1330 9 1330 9 1329 8c-2.608-.212-5.2-.377-7.813-.5-7.7-.37-7.7-.37-9.95-.973-3.256-.767-6.547-.982-9.874-1.246l-2.227-.178c-18.066-1.415-36.085-2.373-54.205-2.686l-3.166-.06c-21.985-.413-43.968-.521-65.957-.524l-9.27-.006c-10.875-.009-21.75-.013-32.625-.012-9.994 0-19.988-.01-29.981-.026-8.724-.013-17.447-.018-26.17-.018-5.149 0-10.297-.002-15.446-.013-19.494-.038-38.934.065-58.4 1.194l-2.275.13c-7.939.276-7.939.276-15.641 1.918-2.25.047-4.5.037-6.75 0-13.083-.107-26.45-.107-39.375 2.062C930.663 8.594 921.307 8.173 912 8V7l2.038-.152c3.196-.24 6.391-.481 9.587-.723l3.2-.238c6.204-.472 12.4-.994 18.595-1.573C983.098.807 1020.605-.49 1058.44-.502z" fill="#227CB7"/><path d="m1480 1018 1 2c-2.656.885-4.4 1.167-7.142 1.281l-2.522.112-2.727.107-2.838.123c-3.007.13-6.014.254-9.021.377a10080.777 10080.777 0 0 0-14.69.625c-5.131.226-10.252.503-15.376.871-72.08 5.019-144.934 3.118-217.122 2.097l-4.371-.06c-4.64-.063-9.279-.136-13.918-.217l-3.436-.05-3.082-.06-2.66-.048C1180 1025 1180 1025 1178 1024c-3.048-.276-6.097-.447-9.152-.621C1166 1023 1166 1023 1163 1021l1.787.076c7.737.326 15.475.628 23.213.924l3.31.13c45.173 1.724 90.487 2.279 135.69 1.87l3.068-.026c44.463-.393 88.857-2.283 133.211-5.415 5.593-.393 11.115-.647 16.721-.559z" fill="#488DC0"/><path d="M552 889c5.141 1.615 10.048 3.64 15 5.75l2.548 1.078c3.756 1.59 7.506 3.19 11.245 4.82C594.939 906.802 609.442 911.92 624 917c-4.167 1.793-7.747.012-11.75-1.438l-2.113-.736A605.31 605.31 0 0 1 605 913v3c-12.378-1.802-23.089-8.243-34-14l-1.94-1.016A261.26 261.26 0 0 1 560 896l-2.426-1.398C553.4 892.107 553.4 892.107 552 891v-2z" fill="#2D96DE"/><path d="M291 177h2v2l-6.555 3.607a9330.672 9330.672 0 0 0-5.525 3.043c-7.822 4.309-7.822 4.309-11.592 6.31l-2.89 1.54-2.442 1.281c-2.031 1.13-2.031 1.13-3.523 2.766-1.726 1.702-3.221 2.326-5.473 3.203-4.745 2.015-8.906 4.625-13.215 7.438a301.029 301.029 0 0 1-8.285 5.187l-2.406 1.46C229 216 229 216 226 217v2l-1.61.734c-3.305 1.569-5.968 2.844-8.577 5.453-2.202 2.202-3.768 2.475-6.813 2.813l-1 3c-3.063 1.188-3.063 1.188-6 2v2l-6 2v2l-2.875 1.5c-4.25 2.418-7.915 5.445-11.688 8.54a105.873 105.873 0 0 1-6.437 4.773c-3.142 2.026-3.142 2.026-5 5.187a279.002 279.002 0 0 1-4.992 2.746c-3.09 1.93-5.604 4.432-8.211 6.961L155 270l-3-1c10.615-8.636 21.454-16.936 32.444-25.09a508.342 508.342 0 0 0 5.235-3.967c7.852-6 15.98-11.492 24.246-16.9 2.246-1.47 4.486-2.948 6.725-4.428 9.336-6.141 18.825-11.94 28.496-17.537 2.59-1.506 5.16-3.042 7.729-4.582 9.893-5.91 19.84-11.6 30.082-16.887 2.846-1.314 2.846-1.314 4.043-2.609z" fill="#2E7BAD"/><path d="m1711.313 1060.938 2.244.013c1.814.012 3.629.03 5.443.049v1c-33.67 5.1-67.601 8.187-101.5 11.313l-2.836.264c-2.648.245-5.296.485-7.945.724l-2.33.217c-4.816.425-9.554.543-14.389.482 5.487-5.487 17.72-4.333 25.211-4.658 3.911-.154 3.911-.154 7.752-.842 2.153-.529 4.097-.673 6.31-.746l2.481-.096 2.621-.095c14.014-.513 14.014-.513 27.625-3.563a310.02 310.02 0 0 1 8.438-.5c1.52-.07 3.039-.142 4.558-.219l2.037-.092c2.07-.199 3.954-.678 5.967-1.189 2.477-.2 4.957-.362 7.438-.5 5.042-.25 5.042-.25 10.015-1.027 3.614-.671 7.2-.578 10.86-.535z" fill="#297EB8"/><path d="M2494 382c3.483 3.118 5.584 6.526 7.68 10.645l1.016 1.96c.707 1.37 1.412 2.743 2.112 4.117a826.502 826.502 0 0 0 3.172 6.135c4.578 8.864 8.453 17.827 12.02 27.143a1895.22 1895.22 0 0 0 2.125 5.285c12.03 30.367 18.327 62.007 16.875 94.715h-1c-.812-5.561-1.142-11.013-1.291-16.629-.23-8.581-.494-16.68-3.014-24.95-.733-2.552-1.066-4.968-1.32-7.608.053-3.596.053-3.596-1.375-4.813a109.43 109.43 0 0 1-.813-4.563c-2.542-14.808-2.542-14.808-8.242-28.574-2.643-5.21-3.86-11.157-4.945-16.863h-2l-.375-1.66c-1.908-7.333-5.228-13.544-8.883-20.117C2504 403 2504 403 2503 400h-2l-.688-2.375c-1.454-4.016-3.308-7.675-5.289-11.453C2494 384 2494 384 2494 382z" fill="#3A82B5"/><path d="M749 978c4.827.423 8.316 1.12 12.767 3.106 5.044 2.019 10.332 3.384 15.545 4.894l7.051 2.063 3.422.998L791 990l2.829.823a203.3 203.3 0 0 1 14.421 4.865c9.418 3.442 19.104 5.912 28.802 8.42 7.104 1.84 14.133 3.819 21.136 6.013 9.916 3.1 20.026 6.058 30.25 7.942 4.434.824 8.388 2.236 12.562 3.937-4.545 1.421-8.234.157-12.7-1.063l-2.602-.686c-2.798-.74-5.592-1.495-8.385-2.251l-5.792-1.544a3586.045 3586.045 0 0 1-14.07-3.79c-2.135-.58-4.272-1.158-6.409-1.733-15.559-4.208-30.943-8.935-46.317-13.767a2466.435 2466.435 0 0 0-11.272-3.494c-11.238-3.46-22.468-6.943-33.64-10.61l-2.647-.855-2.396-.797-2.075-.683C751 980 751 980 749 978z" fill="#327DB4"/><path d="M1461 64c10.046-.157 19.981.328 30 1v2l2.16-.035 2.902-.028 2.848-.035c3.09.098 3.09.098 6.375.57 5.178.736 10.35.911 15.57 1.133 6.041.291 6.041.291 7.145 1.395 2.442.212 4.866.376 7.313.5 4.008.206 7.788.523 11.687 1.5 3.756.267 7.512.444 11.273.621 3.576.364 6.347 1.22 9.727 2.379 3.257.513 6.51.919 9.785 1.299 5.033.61 5.033.61 7.215 1.701v2c-8.796-.968-17.554-2.054-26.298-3.42-10.535-1.608-21.097-2.865-31.686-4.06l-5.766-.66c-4.984-.57-9.969-1.137-14.953-1.702-5.116-.58-10.232-1.165-15.348-1.75-9.982-1.14-19.966-2.275-29.949-3.408v-1z" fill="#3281B7"/><path d="M1935 161c5.959 2.099 11.437 4.64 17 7.625l2.5 1.327c5.975 3.187 11.88 6.488 17.758 9.848 5.6 3.179 11.334 6.019 17.144 8.79C1992 190 1992 190 1993 192c-8.324-2.702-16.445-5.818-24.578-9.043a879.218 879.218 0 0 0-4.887-1.914c-2.37-.92-4.734-1.855-7.098-2.793l-2.218-.853c-1.776-.714-3.504-1.547-5.219-2.397l-1-3c-2.93-1.17-2.93-1.17-6-2l-2-1v-2h-2v-3l-3-1v-2z" fill="#2394E1"/><path d="M901 991c8.538.535 16.886 1.484 25.316 2.926l3.415.568c2.385.398 4.77.798 7.154 1.2 6.199 1.043 12.401 2.064 18.603 3.087l3.642.602c24.206 3.988 48.49 6.942 72.87 9.617v1c-7.583.12-15.116-.037-22.688-.438l-2.394-.118c-5.675-.322-5.675-.322-7.918-1.444-3.31-.243-6.618-.383-9.934-.523-4.197-.348-8.074-1.542-12.11-2.697-5.049-1.332-10.175-2.11-15.331-2.905l-3.31-.523c-6.718-1.034-13.363-1.856-20.155-2.176C936 999 936 999 934 998c-3.113-.314-6.226-.51-9.348-.719C922 997 922 997 921 996a93.035 93.035 0 0 0-4.473-.973l-2.724-.537-2.865-.553-2.877-.564A2526.11 2526.11 0 0 0 901 992v-1z" fill="#3787BA"/><path d="M113 584h1l.044 2.6c.363 19.265 1.148 38.306 3.956 57.4l.435 3.007c2.78 18.206 8.667 35.373 14.75 52.69 1.076 3.076 2.11 6.118 2.815 9.303-2.573-2.274-3.728-4.302-4.938-7.5l-1.023-2.695L129 696l-1.04-2.68c-2.199-5.793-3.814-11.57-5.237-17.597a38.502 38.502 0 0 0-2.348-6.535c-1.479-3.43-1.932-6.499-2.375-10.188l-1-1a148.324 148.324 0 0 1-.438-5.813c-.472-10.893-.472-10.893-3.562-21.187a199.07 199.07 0 0 1-.563-8.125l-.126-2.498c-.322-7.104-.418-14.204-.436-21.314l-.014-3.14.006-2.95.004-2.617c.123-2.251.5-4.197 1.129-6.356z" fill="#3F86BA"/><path d="M1770 117c6.002-.218 11.192.494 17 2v2l1.8.078c6.02.412 10.907 1.8 16.505 4 3.908 1.337 7.585 1.652 11.695 1.922v2l3.125-.188c4.29.208 6.07 1.285 9.875 3.188 1.832.435 3.674.83 5.52 1.203 9.084 2.034 17.766 5.164 26.543 8.234l5.01 1.737c2.425.84 4.851 1.68 7.277 2.524 6.199 2.154 12.415 4.252 18.65 6.302-4.614 1.476-8.151-.063-12.578-1.57l-2.558-.843a1536.38 1536.38 0 0 1-8.114-2.712c-1.773-.59-3.547-1.178-5.32-1.766l-7.905-2.62c-14.996-4.976-30.085-9.366-45.338-13.489l-5.658-1.54A3838.996 3838.996 0 0 0 1770 118v-1z" fill="#317FB6"/><path d="M2168 131c6.867 2.068 13.192 4.848 19.625 8l6.043 2.926 3.13 1.522c5.37 2.603 10.755 5.17 16.14 7.74l5.84 2.792 2.476 1.185L2223 156c-3.314 1.088-3.836 1.073-7.25-.438L2213 154v3c-6.454-1.253-10.92-3.49-16.313-7.188l-4.488-2.988-2.178-1.467c-7.15-4.8-14.43-9.29-22.021-13.357v-1z" fill="#4393DB"/><path d="M1359 9c15.625.447 31.062 2.277 46.556 4.219 3.513.44 7.028.868 10.543 1.293 19.064 2.313 37.987 5.163 56.901 8.488v1c-11.32-.468-22.347-1.788-33.534-3.526-13.58-2.106-27.119-4.081-40.825-5.15C1395 15 1395 15 1392.504 14.492c-3.586-.705-7.172-.856-10.816-1.055l-2.245-.13A1929.02 1929.02 0 0 0 1374 13v-2l-2.266.07-2.984.055-2.953.07c-2.858-.2-4.322-.856-6.797-2.195z" fill="#3884B5"/><path d="M1024 1v1l-3.165.168c-3.875.206-7.75.418-11.624.632l-5.031.27c-2.41.128-4.82.26-7.23.395l-2.274.117c-3.1.177-5.714.43-8.676 1.418-2.25.047-4.5.037-6.75 0-13.083-.107-26.45-.107-39.375 2.063C930.663 8.594 921.307 8.172 912 8V7l2.038-.152c3.196-.24 6.391-.481 9.587-.723l3.2-.238c6.279-.478 12.55-1.008 18.82-1.594 11.71-1.092 23.425-2.01 35.161-2.78 2.014-.134 4.027-.273 6.04-.417C999.351.206 1011.502-.14 1024 1z" fill="#3783B6"/><path d="M2269 756v3c-1.984 1.945-1.984 1.945-4.75 4.125l-3.04 2.406a790.367 790.367 0 0 1-12.347 9.328 374.775 374.775 0 0 0-7.8 6.016c-2.914 2.29-5.875 4.232-9.063 6.125l-1 2c-2.964 1.61-5.799 2.933-9 4v2l-1.898.988-2.477 1.324-2.46 1.301c-2.433 1.355-2.433 1.355-4.165 4.387l-4 1-2 3c-1.845.94-3.695 1.87-5.57 2.746-3.875 2-7.417 4.502-11.012 6.961L2186 818l-3-1 1.702-1.063c12.189-7.632 24.14-15.502 35.872-23.82a343.952 343.952 0 0 1 10.863-7.367c5.784-3.82 11.23-8.024 16.684-12.29a820.286 820.286 0 0 1 6.41-4.917l2.34-1.78c1.522-1.159 3.045-2.316 4.57-3.473l2.102-1.602 1.876-1.426c1.711-1.318 1.711-1.318 3.581-3.262z" fill="#2D79AB"/><path d="M1588 80c29.803 1.402 29.803 1.402 35 4 1.496.2 2.997.363 4.5.5 4.278.389 4.278.389 6.5 1.5 1.353.25 2.714.461 4.078.648l2.5.354 2.672.373c7.358 1.058 14.565 2.35 21.813 4.008 2.58.542 5.065.883 7.687 1.117l3.25.5 2 3c-6.744-.656-13.291-1.763-19.938-3.063-9.578-1.836-19.178-3.459-28.812-4.976l-3.396-.536a4852.532 4852.532 0 0 0-17.09-2.658l-6.385-.997c-.988-.15-1.975-.298-2.992-.451l-2.772-.437-2.417-.371c-2.303-.535-4.135-1.372-6.198-2.511z" fill="#3482B8"/><path d="m386 245-2.281 1.398-3.219 1.977-1.756 1.078a995.665 995.665 0 0 0-9.678 6.024c-6.12 3.858-12.228 7.652-18.566 11.148-10.902 6.124-21.154 13.367-31.5 20.375l-2-1 3-1v-2l1.938-.875c2.214-.953 2.214-.953 3.062-3.125l2.375-.938c2.636-1.066 3.706-2.056 5.625-4.062l3-1 1-2h3v-2h3v-2h4v-2h4v-2h3v-2h4v-2h2v-2h3v-2l2.438-.875c2.695-.858 2.695-.858 3.562-3.125h4l1-3a70.134 70.134 0 0 1 4-1l1-2c2.974-1.09 3.884-1.039 7 0z" fill="#247FB5"/><path d="M2423 437c2.36 2.36 2.491 3.779 3 7h1c.047 8.433.082 16.865.104 25.298.01 3.916.024 7.833.047 11.75.022 3.786.034 7.573.039 11.36.003 1.437.01 2.874.021 4.312.058 7.99-.271 15.498-2.211 23.28a426.095 426.095 0 0 0-.852 4.258L2422 535h-1a286.622 286.622 0 0 1 2.5-23.809c1.402-10.762 1.693-21.6 1.688-32.441l.001-3.875c-.068-12.68-.977-25.258-2.189-37.875z" fill="#317FB3"/><path d="m1163 1021 1.715.075c19.145.826 38.295 1.39 57.451 1.92l12.172.343c7.887.222 15.775.443 23.662.662v1c-10.135.023-20.27.04-30.406.052-4.706.005-9.412.012-14.118.023-4.539.011-9.077.017-13.616.02-1.734.002-3.469.005-5.203.01-2.423.008-4.847.009-7.27.009l-2.188.01c-4.97-.01-4.97-.01-7.199-1.124-3.048-.276-6.097-.447-9.152-.621C1166 1023 1166 1023 1163 1021z" fill="#3985BB"/><path d="M1331 53c1.979.04 3.959.044 5.938 0a101.04 101.04 0 0 1 5.062 0l1 1a87.92 87.92 0 0 0 4.91.316l2.998.127 3.155.12 3.166.13c2.59.107 5.18.209 7.771.307v1c-29.074.258-57.976-.244-87-2v-1c6.262-.17 12.524-.329 18.787-.482 2.128-.053 4.256-.109 6.383-.166 3.068-.083 6.137-.158 9.205-.23l2.858-.083c5.385-.12 10.437.19 15.767.961z" fill="#1076BA"/><path d="M1264 1a6430.644 6430.644 0 0 1 50.032 3.31c1.783.125 3.566.248 5.35.37A864.419 864.419 0 0 1 1356 8v1c-4.312.029-8.625.047-12.938.063l-3.732.025-3.545.01-3.285.016C1330 9 1330 9 1329 8c-2.608-.212-5.2-.377-7.813-.5-4.175-.2-8.125-.484-12.187-1.5a91.182 91.182 0 0 0-4.154-.357l-2.448-.162-2.617-.165-5.511-.373c-2.89-.192-5.78-.381-8.67-.565-2.795-.18-5.588-.37-8.381-.562l-2.617-.158-2.448-.171-2.143-.14c-2.287-.395-3.992-1.222-6.011-2.347z" fill="#3D87BA"/><path d="M2 506c2 2 2 2 2.165 4.746l-.122 3.54-.058 1.951a929.413 929.413 0 0 1-.227 6.396c-.049 1.477-.096 2.954-.143 4.43-.126 3.89-.264 7.78-.405 11.67-.141 3.967-.27 7.936-.401 11.904C2.55 558.425 2.279 566.213 2 574H1c-1.839-22.687-1.608-45.392 1-68z" fill="#3F8FC3"/><path d="M2267 889h5c-2.977 2.355-6.018 4.17-9.375 5.938a819.237 819.237 0 0 0-12.527 6.765c-9.978 5.514-20.016 10.907-30.16 16.11l-3.082 1.617-2.891 1.465-2.543 1.307c-2.874.947-4.55.626-7.422-.202v-1h5v-2c.58-.182 1.16-.364 1.758-.55 4.618-1.487 9.015-3.02 13.242-5.45l1-2c2.805-1.136 5.658-2.052 8.531-3 2.616-.743 2.616-.743 3.469-3h4v-2l3.813-1.438 2.144-.808c1.67-.616 3.355-1.191 5.043-1.754v-2h3v-2h4v-2l8-2v-2z" fill="#1B71AA"/><path d="M552 889c5.339 1.667 10.425 3.807 15.563 6l5.003 2.125 2.337.992c2.354.991 4.72 1.95 7.097 2.883l-4 1 15 8v2c-5.137-1.51-9.576-3.766-14.25-6.313a4047.42 4047.42 0 0 0-4.543-2.44l-2.197-1.181c-2.499-1.325-5.03-2.578-7.572-3.816-8.827-4.376-8.827-4.376-12.438-7.25v-2z" fill="#208BE1"/><path d="M969 1038c5.909-.142 11.425.346 17.25 1.313l2.512.405c5.673.946 11.239 2.128 16.793 3.634 4.155 1.102 7.95 1.775 12.258 1.71l2.394-.027L1022 1045v2l3.625.375c3.651.448 6.92 1.33 10.375 2.625-3.196 1.015-5.448.948-8.73.335l-2.835-.517-3.052-.584-3.178-.588c-3.362-.624-6.72-1.26-10.08-1.896l-6.672-1.238c-10.851-2.02-21.682-4.094-32.453-6.512v-1z" fill="#2F7FB6"/><path d="m997.133 64.902 2.441.01 2.551.025 2.574.014c2.1.012 4.2.03 6.301.049-3.125 1.783-5.751 2.387-9.316 2.778l-3.216.363-3.46.367-3.572.395c-2.493.274-4.986.544-7.48.811-3.81.409-7.62.829-11.429 1.25-2.423.266-4.846.53-7.27.794l-3.447.379-3.235.344-2.83.305c-2.926.228-5.812.25-8.745.214 3.402-2.094 6.053-2.18 10-2v-2l3.395-.184 4.418-.254 2.236-.119c3.182-.187 5.913-.43 8.951-1.443 3.213-.258 6.42-.442 9.639-.605 4.074-.232 7.46-1.521 11.494-1.493z" fill="#2B7DB7"/><path d="m1480 1018 1 2c-2.63.877-4.367 1.171-7.078 1.297l-2.483.121-2.689.117-2.81.13c-1.974.09-3.948.179-5.921.265-2.952.13-5.904.268-8.855.408A650.417 650.417 0 0 1 1415 1023v-1c13.523-1.084 27.05-2.103 40.588-2.991 2.001-.132 4.002-.265 6.002-.4 6.15-.396 12.247-.718 18.41-.609z" fill="#3685BB"/><path d="M1672 329h67v1l-2.516.076c-3.849.118-7.698.238-11.546.361l-2.097.067c-8.498.275-16.964.658-25.443 1.312-4.923.266-9.84.23-14.768.147-3.367-.042-6.413-.027-9.63 1.037l-1-4z" fill="#666467"/><path d="M113 584h1l.06 2.712c.427 22.116.427 22.116 2.28 44.146.572 4.755.74 9.35.66 14.142-7.002-13.096-5.08-31.556-5.125-45.938l-.014-3.14.006-2.95.004-2.616c.123-2.251.5-4.197 1.129-6.356z" fill="#2775AC"/><path d="M319 915c5.823 3.052 11.212 6.461 16.559 10.285 3.396 2.386 6.9 4.551 10.441 6.715-1.742 1.129-1.742 1.129-4 2-2.008-.723-2.008-.723-4.125-2.063a137.602 137.602 0 0 0-10.438-5.75l-2.566-1.269L323 924l2-4h-3v-2h-3v-3z" fill="#2391DD"/><path d="M902 1023c5.756-.32 10.097.485 15.559 2.277 2.218.657 4.208 1.008 6.504 1.223 3.166.402 5.379.932 8.312 2 4.214 1.512 8.202 2 12.656 2.29C947 1031 947 1031 948 1032c1.347.23 2.704.412 4.063.563L956 1033c-4.242 2.828-7.135 1.837-12 1-3.378-.677-6.72-1.466-10.066-2.285l-2.787-.668c-2.904-.698-5.807-1.404-8.71-2.11l-5.947-1.431A6883.261 6883.261 0 0 1 902 1024v-1z" fill="#317FB6"/><path d="M863 14v1c-1.247.09-1.247.09-2.52.184l-3.293.254-3.269.246c-2.978.218-2.978.218-5.918 1.316-1.796.27-3.598.505-5.402.719l-3.198.386-3.337.395c-2.177.258-4.352.518-6.528.781l-2.925.346c-2.547.317-2.547.317-4.74.912-3.023.745-6.019.552-9.12.523l-3.828-.027L806 21v-1c13.422-2.045 26.85-4.048 40.313-5.813l2.994-.41c4.81-.615 8.913-.954 13.693.223z" fill="#3081B5"/><path d="M1148.375 54.875c2.297.01 4.594.02 6.89.027 5.579.022 11.157.055 16.735.098v1c-6.4.29-12.8.574-19.202.854-2.17.096-4.34.193-6.51.292-12.438.562-24.836 1.02-37.288.854v-1c13.062-2.606 26.12-2.226 39.375-2.125z" fill="#3888BD"/><path d="M127 291c0 3.867-1.137 4.671-3.688 7.5l-2.074 2.344c-2.275 2.191-4.522 3.568-7.238 5.156-1.992 1.717-1.992 1.717-3.75 3.563l-1.797 1.816c-1.54 1.574-1.54 1.574-2.453 3.621h-2l-.734 1.691C99.522 323.52 93.129 329.286 87 334c1.397-3.194 3.025-5.19 5.563-7.563 3.137-3.047 5.914-6.193 8.624-9.625 7.617-9.474 16.467-18.047 25.813-25.812z" fill="#2C78AA"/><path d="M1099 1017c12.147-.316 24.205.65 36.313 1.5l6.326.434c5.12.35 10.24.707 15.361 1.066v1c-5.233.025-10.465.043-15.698.055-1.781.005-3.562.012-5.343.02-2.557.013-5.113.018-7.67.023l-2.421.015c-5.64 0-5.64 0-7.868-1.113a87.823 87.823 0 0 0-4.352-.535l-2.578-.264-2.695-.264-2.719-.275c-2.218-.224-4.437-.445-6.656-.662v-1z" fill="#3C87BC"/><path d="M1899 421h1c.154 20.692-.261 41.323-1 62h-1a3888.72 3888.72 0 0 1-.537-19.257c-.058-2.177-.12-4.354-.187-6.53-.372-12.28-.53-24.096 1.724-36.213z" fill="#57565A"/><path d="M339 153v3l-2.027.777c-6.334 2.525-12.344 5.378-18.348 8.598l-2.172 1.163-4.328 2.323c-3.32 1.78-6.65 3.538-10 5.264l-3.367 1.758C296 177 296 177 293 176c5.424-2.796 10.85-5.59 16.278-8.38a6698.83 6698.83 0 0 0 5.531-2.849c2.658-1.37 5.317-2.737 7.976-4.103l2.476-1.279c4.516-2.316 9.048-4.45 13.739-6.389z" fill="#2B7CB0"/><path d="M439 113c-4.055 2.703-8.468 4.219-13.102 5.648-4.58 1.416-8.698 3.205-12.96 5.415C401.459 129.94 401.459 129.94 395 128l2.754-1.102a301669347.86 301669347.86 0 0 1 5.85-2.339c3.45-1.379 6.9-2.761 10.345-4.153 3.678-1.484 7.362-2.95 11.051-4.406l3.281-1.3 2.969-1.138 2.578-.996C436 112 436 112 439 113z" fill="#2F80B3"/><path d="M1024 1v1l-3.165.168c-3.875.206-7.75.418-11.624.632l-5.031.27c-2.41.128-4.82.26-7.23.395l-2.274.117c-3.1.177-5.714.43-8.676 1.418a114.826 114.826 0 0 1-6.688-.938l-3.574-.59L973 3V2c4.53-.317 9.06-.62 13.593-.91 1.533-.1 3.066-.203 4.598-.31C1002.236.005 1012.964.1 1024 1z" fill="#3588C0"/><path d="m139 482 2 1-1.18 2.48c-6.356 13.768-11.009 28.16-15.82 42.52h-1c.811-6.625 2.366-12.542 4.938-18.688 1.996-4.848 3.272-9.74 4.449-14.843C133 492 133 492 134 490h2l.938-2.875C138 484 138 484 139 482z" fill="#287CB2"/><path d="m1036.762 60.902 3.388.01 3.537.026 3.573.013c2.913.012 5.827.028 8.74.049v1c-14.357 1.771-28.507 3.213-43 3 3.225-1.883 5.855-2.325 9.563-2.563 4.898-.325 9.269-1.56 14.199-1.535z" fill="#2579B5"/><path d="M2411 388c3.651 3.844 4.448 8.57 5.688 13.563l.681 2.615c1.631 6.38 1.631 6.38 1.631 9.822h2c1.704 5.16 2.222 9.443 2.125 14.938l-.027 2.072c-.024 1.663-.06 3.327-.098 4.99h-1l-.629-3.496c-2.112-11.31-4.858-22.32-8.084-33.363l-.896-3.082-.812-2.74C2411 391 2411 391 2411 388z" fill="#3986BD"/><path d="m2202 921 1 2 2 1c-11.83 6.063-23.843 11.627-36 17v-2h2v-2c2.906-1.257 4.796-2 8-2v-2h4v-2h4v-2h4v-2l3.813-.75c3.023-.738 3.993-1.044 6.187-3.375l1-1.875z" fill="#247CB3"/><path d="m2133 848-1.665.87a9114.691 9114.691 0 0 0-7.523 3.942l-2.619 1.37c-4.136 2.171-8.196 4.396-12.193 6.818a248.091 248.091 0 0 1-4.887 2.105c-4.413 1.869-8.755 3.901-13.113 5.895l-2-2 1.826-.867c2.85-1.355 5.7-2.713 8.549-4.07l3.14-1.494c5.002-2.388 9.985-4.802 14.915-7.339l2.479-1.271a454.589 454.589 0 0 0 4.592-2.404c5.17-2.665 5.17-2.665 8.499-1.555z" fill="#277BAF"/><path d="M802 22v1l-3.148.367c-9.152 1.09-18.127 2.347-27.04 4.758-3.862.887-6.887 1.039-10.812.875l-1-2c5.176-.884 10.354-1.757 15.533-2.618 1.761-.295 3.522-.593 5.282-.894 2.533-.433 5.068-.854 7.603-1.273l2.374-.414c4.002-.65 7.289-.95 11.208.199z" fill="#3181B7"/><path d="M2200 148c6.21-.522 10.025 1.068 15.438 4l2.216 1.156c1.789.935 3.568 1.888 5.346 2.844-3.314 1.088-3.836 1.073-7.25-.438L2213 154v3c-3.083-1.199-6.063-2.477-9-4v-2l-4-1v-2z" fill="#088CF3"/><path d="M1967 178c5.656 1.63 10.637 4.258 15.813 7l2.638 1.367 2.506 1.32 2.28 1.2C1992 190 1992 190 1993 192c-6.642-2.116-13.105-4.567-19.563-7.188l-2.767-1.115c-2.224-.896-4.448-1.796-6.67-2.697l3-1v-2z" fill="#3499DF"/><path d="M2423 437c2.36 2.36 2.491 3.779 3 7h1v40h-1l-.168-2.915c-.21-3.632-.42-7.265-.632-10.897l-.27-4.68c-.547-9.512-1.153-19.012-1.93-28.508z" fill="#3B89BF"/><path d="M2065.063 978.938 2068 979c-2.074 4.149-8.952 5.01-13.246 6.478a646.749 646.749 0 0 0-6.143 2.153l-3.912 1.35-3.599 1.246c-2.964.74-4.31.878-7.1-.227l4-1v-2l2.195-.586c4.987-1.343 9.927-2.712 14.805-4.414l3.313-1.063c5.67-1.977 5.67-1.977 6.75-2z" fill="#2077B2"/><path d="M136 709c2.575 2.575 3.572 5.503 4.938 8.813 3.39 8.044 7.398 15.703 11.593 23.354l1.406 2.606 1.278 2.326L156 748l-1 2c-3.753-5.866-7.249-11.848-10.625-17.938l-1.445-2.552c-3.634-6.557-6.93-12.9-6.93-20.51z" fill="#3E87B8"/><path d="M2435 305c8.163 8.075 15.781 16.569 22.984 25.508 2.607 3.223 5.301 6.36 8.016 9.492l-1 2a1727.76 1727.76 0 0 1-13.148-14.902c-2.111-2.392-4.264-4.742-6.414-7.098C2435 308.419 2435 308.419 2435 305z" fill="#3D8BBA"/><path d="M705 39v1l-3.875.375c-8.7.99-16.748 3.02-25.047 5.82-3.159.826-5.828.95-9.078.805l-1-2a2331.75 2331.75 0 0 1 13.77-3.046c1.56-.342 3.12-.688 4.678-1.039 2.247-.504 4.497-.994 6.747-1.481l2.094-.48c4.208-.894 7.523-.937 11.711.046z" fill="#2C7FB3"/><path d="M102 770c3.858 1.572 6.144 4.01 9 7 4.226 4.34 8.558 8.432 13.203 12.324 1.874 1.748 3.322 3.587 4.797 5.676-3 0-3 0-4.682-1.358l-1.83-1.896-2.049-2.092-2.126-2.216c-4.773-4.926-9.56-9.642-14.855-14.008L102 772v-2z" fill="#3479B6"/><path d="M1725 106c6.719-.13 13.312.376 20 1v2l3.75.313c3.648.303 5.398 1.444 8.25 3.687-7.395-.535-14.42-1.845-21.625-3.563l-3.043-.708c-2.445-.571-4.89-1.147-7.332-1.729v-1z" fill="#1F79B9"/><path d="M710 964c4.872.427 8.573 1.086 13.04 3.188 2.342.97 4.688 1.567 7.148 2.187 6.152 1.613 12.131 3.747 17.812 6.625l1 2c-8.479-2.427-16.798-5.292-25.125-8.188l-4.055-1.404c-3.274-1.134-6.547-2.27-9.82-3.408v-1z" fill="#337DB4"/><path d="m75 347 1 4-2.207 1.594c-3.078 2.651-5.25 5.554-7.48 8.906l-1.182 1.723C63.205 366.06 61.43 368.88 60 372h-2l-.875 1.938C56 376 56 376 54 377c1.258-3.421 2.69-6.232 4.828-9.18l1.676-2.316 1.746-2.379c.56-.777 1.121-1.555 1.7-2.355A189.783 189.783 0 0 1 75 347z" fill="#2C79AD"/><path d="M1744 1055c2 .313 2 .313 4 1l1 2c-3.874.506-7.75 1.004-11.625 1.5l-3.316.434-3.223.41-2.952.38c-2.979.285-5.893.323-8.884.276v-2c7.052-1.674 13.957-2.372 21.191-2.754 2.712.066 2.712.066 3.809-1.246z" fill="#2E81BB"/><path d="M1944 1017c-5.123 2.821-10.79 3.786-16.438 5.125l-3.431.84-3.315.793-3.017.723c-2.675.496-5.086.618-7.799.519l1-2c2.598-.71 2.598-.71 6.063-1.375a268.688 268.688 0 0 0 18.693-4.443c3.3-.867 4.932-1.286 8.244-.182z" fill="#2B7DB5"/><path d="M2154 947c-26.133 12.622-26.133 12.622-31 11 3.282-2.815 6.438-3.963 10.563-5.188l3.44-1.042C2140 951 2140 951 2143 951v-2c1.266-.532 2.538-1.05 3.813-1.563l2.144-.878C2151 946 2151 946 2154 947z" fill="#277CB2"/><path d="M1535 1014v1h-9v2h-17l-1-2c3.374-.367 6.75-.716 10.125-1.063l2.883-.314c4.878-.491 9.164-.785 13.992.377z" fill="#3285BD"/><path d="M810 972c7.711.652 15.043 2.269 22.563 4.063l3.634.853c2.936.69 5.87 1.385 8.803 2.084v1c-7.235-.298-13.903-.617-20.691-3.234-4.624-1.534-9.5-2.074-14.309-2.766v-2z" fill="#3A8BBC"/><path d="m866.504 82.902 3.058.035 3.067.028L875 83c-2.746 2.746-4.938 2.68-8.758 3.29l-2.01.327c-2.117.343-4.237.676-6.357 1.008l-4.309.695c-3.52.569-7.043 1.127-10.566 1.68v-2c5.693-1.853 11.378-2.718 17.305-3.535 2.919-.504 3.293-1.45 6.199-1.563z" fill="#2C7EB7"/><path d="M1695 991c-4.284 2.31-8.58 3.146-13.313 4.125l-2.513.55c-4.83 1.015-9.24 1.525-14.174 1.325l-1-2c3.853-.676 7.707-1.34 11.563-2l3.29-.578c5.456-.929 10.612-1.676 16.147-1.422z" fill="#2D80B6"/><path d="M346 934c4.086.733 7.595 2.687 11.25 4.563l1.969.998c1.595.81 3.188 1.624 4.781 2.439l-1 2c-6.419-1.736-12.138-3.852-18-7l1-3z" fill="#298EDE"/><path d="M576 901c1.772.283 3.543.577 5.313.875l2.988.492C587 903 587 903 590 905v2l6 1-1 2 2 2h-4v-2l-2.105-.805c-3.152-1.301-6.165-2.782-9.207-4.32l-3.239-1.633L576 902v-1z" fill="#108DEF"/><path d="M117 556c1.244 3.732.71 6.053.125 9.938-.97 6.674-1.649 13.333-2.125 20.062-2.777-2.777-2.3-4.493-2.313-8.375.092-7.367.974-14.948 4.313-21.625z" fill="#3986BD"/><path d="M925 76v1c-3.877.575-7.755 1.145-11.633 1.709-1.963.287-3.925.578-5.887.87l-3.77.546-3.459.508c-3.144.355-6.092.577-9.251.367l-2-2 2.371-.184 3.067-.254c1.009-.08 2.018-.162 3.058-.246 2.44-.048 2.44-.048 3.504-1.316a216.93 216.93 0 0 1 8.125-.563l2.266-.13c4.543-.25 9.059-.35 13.609-.307z" fill="#3080B8"/><path d="M1806 968c-9.578 3.456-19.729 7-30 7v-2c4.247-1.036 8.498-2.051 12.75-3.063l3.656-.892 3.516-.83 3.237-.778c2.724-.419 4.277-.349 6.841.563z" fill="#3080B4"/><path d="M2399 359h3l1 7h2c1.038 2.91 2.052 5.83 3.063 8.75l.892 2.5.83 2.422.778 2.222c.494 2.38.198 3.822-.563 6.106l-1.137-3.043A2450.992 2450.992 0 0 0 2399 359z" fill="#3883BE"/><path d="m412 229 2 1a2210.235 2210.235 0 0 1-8.063 4.813l-2.279 1.369c-4.452 2.64-8.85 4.896-13.658 6.818v-4c3-2 3-2 6.5-2.75 4.902-1.102 8.892-3.556 13.18-6.105L412 229z" fill="#217BB4"/><path d="M1935 161c6.979 2.416 13.44 5.622 20 9v1h-5v-2h-4v-2h-3v2h-3v-2h-2v-3l-3-1v-2z" fill="#2B9BE8"/><path d="M1891 1030v1c-3.228.675-6.457 1.338-9.688 2l-2.763.578-2.686.547-2.46.508c-2.504.382-4.874.43-7.403.367l1-2h5v-2c2.416-.364 4.832-.716 7.25-1.063l2.066-.314c3.469-.488 6.353-.85 9.684.377z" fill="#2379B4"/><path d="M1636 1001c-7.083 4.014-16.021 4.307-24 4l-1-2c3.227-.535 6.457-1.05 9.688-1.563l2.763-.458c.886-.14 1.773-.278 2.686-.42l2.46-.397c2.649-.179 4.833.212 7.403.838z" fill="#3183B8"/><path d="M195 805c3.706 2.78 6.56 5.687 9.438 9.313 3.447 4.3 6.952 8.522 10.562 12.687h-3a90.775 90.775 0 0 1-5.313-6.063l-2.945-3.585c-.47-.579-.941-1.157-1.427-1.753-1.621-1.97-3.307-3.88-5.002-5.787C195 807 195 807 195 805z" fill="#3D8CBC"/><path d="M1484 25c9.397 1.036 18.726 2.117 28 4v1c-3.542-.11-7.084-.241-10.625-.375-.999-.03-1.998-.062-3.027-.094-5.125-.203-9.55-.517-14.348-2.531v-2z" fill="#3C88BC"/><path d="M2081 871v3c-2.937 1.468-5.874 2.937-8.813 4.402-1.879.942-3.755 1.89-5.624 2.852-6.136 3.15-6.136 3.15-9.563 3.746l-2-1 26-13z" fill="#297BB1"/><path d="M298 303c-6.273 4.427-12.59 8.773-19 13l2-5h2v-2h3v-2l1.938-.875c2.214-.953 2.214-.953 3.062-3.125 2.974-1.09 3.884-1.039 7 0z" fill="#2781B7"/><path d="m329 924 4 1v2l3.125.25c4.405.853 6.36 2.092 9.875 4.75-1.723 1.137-1.723 1.137-4 2-2.184-.793-2.184-.793-4.438-2.188l-2.367-1.43L333 929l-3.063-1.813L328 926l1-2z" fill="#2191E8"/><path d="M1701 101h15v1l8 2v2c-7.768-.793-15.363-2.419-23-4v-1z" fill="#3181B8"/><path d="M1127 1063c8.224-.388 15.177.413 23 3v1c-2.522-.115-5.042-.242-7.563-.375l-2.134-.094c-4.716-.26-8.807-1.078-13.303-2.531v-1z" fill="#317FB6"/><path d="M2291 875h5c-3.68 2.907-7.623 5.32-11.625 7.75l-2.063 1.285c-1.733 1.052-3.52 2.016-5.312 2.965l-2-1 3-1v-2l1.938-.875c2.214-.953 2.214-.953 3.062-3.125h4v-2h4v-2z" fill="#237EB4"/><path d="m2313 861 4 1c-6.596 4.446-13.275 8.751-20 13v-3l1.813-.813c2.23-1.067 2.23-1.067 3.75-2.812C2304 867 2304 867 2307 867v-2l2.438-.875c2.695-.858 2.695-.858 3.562-3.125z" fill="#2781B4"/><path d="m2380 814 2 1a220.739 220.739 0 0 1-15 12l-2-1 3-1 .875-2.375c1.44-3.36 2.915-3.983 6.125-5.625l2.688-1.75L2380 814z" fill="#217FB4"/><path d="M127 291c0 3.867-1.137 4.671-3.688 7.5l-2.074 2.344c-2.274 2.19-4.496 3.612-7.238 5.156a207.388 207.388 0 0 0-5 4c3.46-7.88 11.578-13.535 18-19z" fill="#2E7FB3"/><path d="M1661 996v2c-1.03.2-1.03.2-2.082.402l-2.73.535-2.708.528c-2.594.512-2.594.512-5.48 1.535a65.305 65.305 0 0 1-4.188.063L1640 1001l-1-2a3522.89 3522.89 0 0 1 8.75-1.5l2.5-.434 2.422-.41 2.222-.38C1657 996 1657 996 1661 996z" fill="#2E81B7"/><path d="M2267 889h5c-3.291 2.638-6.779 4.587-10.5 6.563l-3.406 1.816A319.568 319.568 0 0 1 2251 901l-1-2h2v-2h3v-2h4v-2l8-2v-2z" fill="#247DB4"/><path d="M763 960c19.005 4.039 19.005 4.039 27 7-4.225 1.304-6.774.268-11-1-1.977-.22-3.955-.44-5.934-.648-3.56-.606-6.734-1.984-10.066-3.352v-2z" fill="#3B8BBD"/><path d="M2045 888v2h-3l-.625 1.938C2040 894 2040 894 2037 894.625l-3 .375-2 2c-1.988.398-3.99.738-6 1l-1-2 3.43-1.496a133453.906 133453.906 0 0 0 6.707-2.928l2.168-.947 2-.873C2043.242 888 2043.242 888 2045 888z" fill="#267EB4"/><path d="m2195 145 10 2-2 2-3-1v2l4 1v2l5 2-2 1c-2.566-1.293-2.566-1.293-5.563-3.188l-3.003-1.855C2196 149 2196 149 2195 145z" fill="#2D93E1"/><path d="M448 213a2506.376 2506.376 0 0 1-7.875 4.5c-.746.43-1.493.859-2.262 1.3l-2.168 1.231-2 1.143C432 222 432 222 430 222v-3l6-1 1-3h4v-2c3.01-.934 3.867-1.044 7 0z" fill="#227BB2"/><path d="m314 288 2 1a2148.55 2148.55 0 0 1-6.25 4.875l-1.777 1.395c-2.882 2.234-5.599 4.277-8.973 5.73v-4l2.313-.75c2.76-1.014 2.76-1.014 4.062-3.188 2.362-2.997 5.078-3.837 8.625-5.062z" fill="#2B82B5"/><path d="M1943 167h3v2h4v2h5l1 3c-5.277-.539-9.256-1.773-14-4l1-3z" fill="#068EEF"/><path d="M1602 1006v1l-3.438.438c-3.37.174-3.37.174-4.562 1.562-1.996.168-1.996.168-4.438.188l-2.433.042C1585 1009 1585 1009 1583 1007c2.227-.365 4.457-.716 6.688-1.063l3.761-.597c3.212-.308 5.469-.183 8.551.66z" fill="#3082B9"/><path d="M552 889c5.196 1.599 10.066 3.741 15 6l-2 1v2a45.398 45.398 0 0 1-13-7v-2z" fill="#4B9AE0"/><path d="m2355 831 3 1v2a115.566 115.566 0 0 1-6 4.625l-1.734 1.273A797.633 797.633 0 0 1 2346 843l-2-2c1-2 1-2 3.375-2.875 2.964-1.27 3.815-2.54 5.625-5.125h2v-2z" fill="#2681B8"/><path d="M1647 450h15v1h-11l1 4c-1.438 1.75-1.438 1.75-3 3-1.765-3.088-2-4.233-2-8z" fill="#646060"/><path d="m275 315 3 1c-3.34 4.322-6.328 7.175-11 10 .75-4.75.75-4.75 3-7h3v-2h2v-2z" fill="#1D7DB6"/><path d="M2360 293c3.754 1.251 4.24 2.565 6 6v2h2l2.93 5.273c1.079 1.888 1.079 1.888 3.07 3.727l-1 3a2859.405 2859.405 0 0 1-5.938-8.313l-1.708-2.38-1.631-2.295-1.508-2.11C2361 296 2361 296 2360 293z" fill="#2B78B8"/><path d="m2025 898-1.691.836c-1.581.797-3.151 1.616-4.711 2.453l-2.535 1.336-2.528 1.352c-2.715 1.096-4.636 1.22-7.535 1.023 2.606-2.606 5.605-3.755 8.938-5.188l1.92-.865c4.782-2.067 4.782-2.067 8.142-.947z" fill="#277CB2"/><path d="M2205 148c4.36 1.348 8.313 3.05 12.375 5.125l3.21 1.633L2223 156c-2.551.93-3.74 1.086-6.36.223l-2.39-1.16-2.422-1.153L2210 153v-2l-5-1v-2z" fill="#3FA4EB"/><path d="M1699 72c2.94.617 5.876 1.243 8.813 1.875l2.525.527 2.432.528 2.237.476C1717 76 1717 76 1720 78c-7.562-.334-14.062-.871-21-4v-2z" fill="#378BBD"/><path d="M329 928c5.543.443 8.45 1.934 13 5 2.753.337 2.753.337 5 0l-1 3c-4.233-.62-7.523-2.105-11.313-4.063l-3.238-1.66L329 929v-1z" fill="#2688D3"/><path d="M2521 632c1.147 3.44.871 4.003-.434 7.23l-.966 2.432-1.037 2.525-1.026 2.561A855.456 855.456 0 0 1 2515 653c-1.015-3.113-1.004-4.813.18-7.855l.816-2.135.879-2.197.855-2.233c2.101-5.411 2.101-5.411 3.27-6.58z" fill="#2376AC"/><path d="M2329.625 850.875 2332 851c-3.676 4.01-7.19 6.453-12 9l-1-3c3-2 3-2 6-2v-2c2-2 2-2 4.625-2.125z" fill="#2582B9"/><path d="M656 134c-2.224.87-4.453 1.72-6.688 2.563l-1.896.748c-3.868 1.437-6.452 1.955-10.416.689 3.085-1.666 6.127-2.738 9.5-3.688l2.844-.824c2.664-.49 4.132-.375 6.656.512z" fill="#2378B1"/><path d="m665 46-1 3-2.23.184-2.957.254c-.963.08-1.926.162-2.918.246-2.681.293-5.261.743-7.895 1.316l-1-2c2.249-.505 4.5-1.004 6.75-1.5l3.797-.844C661 46 661 46 665 46z" fill="#2F80B4"/><path d="M789 100c-3.611 2.17-7.108 2.588-11.25 3.125l-3.828.508L771 104v-2c6.148-1.628 11.64-2.202 18-2z" fill="#2B7DB5"/><path d="M749 978c7.255.636 12.529 2.635 19 6-4.265 1.422-7.2-.346-11.188-1.938l-2.271-.88c-1.85-.72-3.696-1.45-5.541-2.182v-1z" fill="#3980B7"/><path d="M565 896c4.318.508 8.033 1.197 12 3l-4 1v2c-5.662-1.477-5.662-1.477-7.375-4.125L565 896z" fill="#3095E4"/><path d="m2415 783 2 1-13 13c0-4.31 2.167-5.897 5-9l2-1v-2c1.875-1.063 1.875-1.063 4-2z" fill="#197AAF"/><path d="M1141 713c4.264 6.396 4.27 12.54 4 20-2.382-3.803-2.655-7.89-3.125-12.25l-.262-2.258c-.21-1.83-.413-3.66-.613-5.492z" fill="#5E595D"/><path d="M513 184a784.566 784.566 0 0 1-6.813 3.563l-1.947 1.037c-1.71.877-3.473 1.645-5.24 2.4l-3-1 3-1v-2h4v-2c6.625-2.125 6.625-2.125 10-1z" fill="#2B7FB6"/><path d="M1725 106c5.152-.09 9.92.153 15 1v2l5 1c-2.527 1.263-3.417.854-6.133.223l-2.441-.557-2.551-.603-2.574-.592c-2.102-.484-4.202-.977-6.301-1.471v-1z" fill="#3580B5"/><path d="M969 1038c6.283-.233 11.88.595 18 2v2c-6.082-.676-12.013-1.736-18-3v-1z" fill="#3B85B8"/><path d="M1715 987v2c-.957.09-.957.09-1.934.184l-2.504.254-2.496.246c-2.053.105-2.053.105-3.066 1.316a176.79 176.79 0 0 1-7-1v-1c11.522-2.296 11.522-2.296 17-2z" fill="#297EB4"/><path d="m2044 438 2 1c.18 5.22-.03 9.073-2 14h-1c-.027-1.75-.046-3.5-.063-5.25l-.035-2.953c.086-2.455.39-4.459 1.098-6.797z" fill="#242321"/><path d="M600 372c2-.043 4-.04 6 0l1 1a101.93 101.93 0 0 1-.438 5.563l-.308 3.066L606 384c-2.567-3.85-1.833-5.586-1-10l-5-1v-1z" fill="#3B363F"/><path d="M118 785c3.215 1.408 5.322 3.103 7.75 5.625l1.86 1.914L129 794l-2 2a864.517 864.517 0 0 1-4.5-4.375l-2.531-2.46C118 787 118 787 118 785z" fill="#3980C0"/><path d="M647 52a786.21 786.21 0 0 1-6.313 1.563l-3.55.878C634 55 634 55 631 54c2.56-1.494 5.164-2.435 8-3.25l2-.578c2.538-.218 3.847.54 6 1.828z" fill="#287FB5"/><path d="M255 866c3.664 2.063 6.705 4.359 9.813 7.188l2.394 2.167L269 877c-3 0-3 0-6-2v-2l-2.438-.813L258 871l-1-3h-2v-2z" fill="#3281BA"/><path d="m1153 436 3 1-8 10-1-3c1.215-2.043 1.215-2.043 2.938-4.188l1.714-2.167L1153 436z" fill="#282622"/><path d="m1556.688 72.875 3.011.055L1562 73l1 2c-5.346 1.002-9.624.849-15 0 3.42-2.28 4.682-2.22 8.688-2.125z" fill="#3285BE"/><path d="M2025 991h8c-2.676 2.676-4.949 2.832-8.625 3.625-1.189.26-2.377.52-3.602.79-.915.192-1.83.386-2.773.585v-2l7-1v-2z" fill="#277BB4"/><path d="M1868 951v2c-4.177 1.591-7.532 2.213-12 2l-1-2c1.415-.339 2.832-.67 4.25-1l2.39-.563C1864 951 1864 951 1868 951z" fill="#277EB7"/><path d="M2531 470c2.664 2.664 2.981 4.403 3.098 8.137l-.035 3.55-.028 3.575L2534 488h-1c-.09-.957-.09-.957-.184-1.934l-.253-2.503-.247-2.497c-.105-2.053-.105-2.053-1.316-3.066-.141-2.67-.042-5.324 0-8z" fill="#2E7EB6"/><path d="M446 447h1c1.078 6.038.948 10.156-1 16l-2 1 2-17z" fill="#565553"/><path d="m1855 956-13 3-1-2c1.577-.56 3.162-1.097 4.75-1.625l2.672-.914C1851 954 1851 954 1855 956z" fill="#2A81B6"/><path d="M1296 700h1l1 8 11 1v1c-1.98.027-3.958.046-5.938.063l-3.34.035C1297 710 1297 710 1296 709a74.456 74.456 0 0 1-.063-4.563l.028-2.503L1296 700z" fill="#585558"/><path d="M120 537h1c-.964 9.41-.964 9.41-2 14l-2-1c.115-1.418.243-2.834.375-4.25.07-.789.14-1.578.21-2.39.43-2.446 1.201-4.208 2.415-6.36z" fill="#287DB5"/><path d="m355 938 9 4-1 2-10-3 2-1v-2z" fill="#4A9BDC"/><path d="M207 858c5.803 1.995 11.561 4.842 15 10-3.865-1.386-6.968-3.19-10.313-5.563l-2.675-1.878L207 859v-1z" fill="#347AB4"/><path d="M2458 735h4c-1.668 3.941-4.227 6.79-7 10l-1-3c1.375-2.563 1.375-2.563 3-5l1-2z" fill="#1E7FB4"/><path d="m963 708 3 1c-1.29 1.459-2.583 2.917-3.875 4.375l-2.18 2.46A107.894 107.894 0 0 1 956 720c.324-5.352 3.497-8.283 7-12z" fill="#2B2928"/><path d="m1107 503 2 1-2 5 2 2h-7c3.875-6.875 3.875-6.875 5-8z" fill="#332A29"/><path d="m40 399 1 4-3 1c-1.17 2.93-1.17 2.93-2 6l-1 2h-2c1.642-4.776 4.265-8.794 7-13z" fill="#2D78AE"/><path d="m203 383 4 1-8 8-1-2 1-3h2v-2h2v-2z" fill="#187CB5"/><path d="M582 905c4.033 1.22 7.543 2.56 11 5v2c-4.234-1.31-8.074-2.944-12-5l1-2z" fill="#2C8AD6"/><path d="m2393 801 4 1a420.912 420.912 0 0 1-3.75 3.938l-2.11 2.214c-2.146 1.853-3.375 2.456-6.14 2.848l2.313-2.25c3.747-3.357 3.747-3.357 5.687-7.75z" fill="#1D78AB"/><path d="M882 331h8l-1.938 1.813c-2.265 2.095-2.265 2.095-3.062 5.187-3-3.625-3-3.625-3-7z" fill="#434042"/><path d="M547 170c-2.228 2.228-3.658 2.692-6.625 3.625-.817.26-1.635.52-2.477.79L536 175l1-4c3.38-1.04 6.478-1.08 10-1z" fill="#2B81B9"/><path d="M1534 71c6.069-.253 11.162.302 17 2v1c-6.069.253-11.162-.302-17-2v-1z" fill="#1C77B8"/><path d="m598 910 8 2-1 4-4-1v-2h-3v-3z" fill="#048DF2"/><path d="M274 882c3.283 1.49 5.93 3.386 8.75 5.625l2.422 1.914L287 891c-3.802 0-5.112-1.2-8.188-3.375l-2.73-1.898L274 884v-2z" fill="#2578AF"/><path d="m597 548 2 1-1 12-2-2c.023-2.602.023-2.602.375-5.625l.336-3.04L597 548z" fill="#3E3C37"/><path d="M1536 330h12c-3.473 2.315-5.884 2.626-10 3l-2-1v-2z" fill="#454243"/><path d="M2526 617c1.371 3.69.6 5.709-.938 9.25l-1.152 2.703L2523 631c-1.371-3.69-.6-5.709.938-9.25l1.152-2.703.91-2.047z" fill="#287BB1"/><path d="M2334 261c4.55 1.517 6.5 5.169 9 9l-1 2a819.413 819.413 0 0 1-4-4.375l-2.25-2.46C2334 263 2334 263 2334 261z" fill="#337FBE"/><path d="M2339 843h5c-3.173 3.536-5.167 5.586-10 6 1.375-2 1.375-2 3-4h2v-2z" fill="#227EB3"/><path d="m2441 757 2 1-9 9-1-4 2.313-1.313c2.268-1.424 3.907-2.72 5.687-4.687z" fill="#1678AD"/><path d="M1619 611h2v3l3 2-7 1c.875-4.875.875-4.875 2-6z" fill="#434041"/><path d="M2351 282h2v2l3 1c.688 2.063.688 2.063 1 4h2l1 4c-3.257-3.167-6.272-6.362-9-10v-1z" fill="#337FBD"/><path d="M2133 954v2c-6.625 3.125-6.625 3.125-10 2 3.253-2.672 5.76-4 10-4z" fill="#1D75B0"/><path d="M630 139h6c-1 2-1 2-3.813 3.188-3.047.776-4.324.913-7.187-.188l5-1v-2z" fill="#1E75AF"/><path d="M676 127c-1 2-1 2-2.777 2.703l-2.16.547-2.153.578L667 131l-2-2c3.83-1.802 6.781-2.196 11-2z" fill="#247CB6"/><path d="M329 924c2.063.438 2.063.438 4 1v2h4v2c-5.538-.615-5.538-.615-7.875-2.563L328 925l1-1z" fill="#078CEC"/><path d="M1925 478h1c.283 4.906.165 7.245-3 11 .14-1.646.287-3.292.438-4.938.08-.916.162-1.833.246-2.777C1924 479 1924 479 1925 478z" fill="#292923"/><path d="m373 248 3 1c-1 3-1 3-2.875 4.25C371 254 371 254 368 253l1-2h4v-3z" fill="#1778B4"/><path d="M1983 186c3.594 1.335 6.755 2.96 10 5-2 1-2 1-4.383.223l-2.742-1.16-2.758-1.153L1981 188l2-2z" fill="#579DD4"/><path d="m1125 1061.438 1 1.562-3.813.125-2.144.07C1118 1063 1118 1063 1115 1061c7.508-1.354 7.508-1.354 10 .438z" fill="#1177BC"/><path d="M2017 996c-3.445 2.296-5.938 2.54-10 3v-2c6.286-2.429 6.286-2.429 10-1z" fill="#2A7DB4"/><path d="M590 598c2.29 3.435 2.178 4.985 2 9l-3 1 1-10z" fill="#3E3B3A"/><path d="M1560 579c2 3 2 3 1.75 5.563C1561 587 1561 587 1559 589c-.125-6.625-.125-6.625 1-10z" fill="#2C2826"/><path d="M2323 214c3.605 2.06 6.803 4.351 10 7-2.763-.523-5.326-1.109-8-2v-3h-2v-2z" fill="#368ABD"/><path d="m2192 142 8 3-3 1-2-1 1 3-3-1-1-5z" fill="#3C9DE8"/><path d="m2202 921 1 2 2 1c-2.313 1.563-2.313 1.563-5 3l-3-1 5-5z" fill="#1673B0"/><path d="M287 892c3.817 1.555 6.192 4.036 9 7-3.44-1.242-6.252-2.557-9-5v-2z" fill="#2F80B9"/><path d="M197 851c4 0 4 0 6.75 2.5L206 856l-1 2a962.085 962.085 0 0 1-4-2.938l-2.25-1.652L197 852v-1z" fill="#377DB8"/><path d="M87 753c4.142 1.38 5.322 3.598 8 7l-1 2a516.663 516.663 0 0 1-3.5-3.375l-1.969-1.898C87 755 87 755 87 753z" fill="#317DBF"/><path d="m1955 171 5 2-4 1-1-3zm-6 3h7l-3 2-4-2z" fill="#359CE2"/><path d="M1925 156c3.912 1.156 6.875 2.355 10 5h-5v-2l-5-1v-2z" fill="#41A3E2"/><path d="m1917 152 8 3-1 2h-4v-2l-3-1v-2z" fill="#2F99D7"/><path d="M1900 1025h6l1 2-7 1v-3z" fill="#2A80B9"/><path d="M95 762h2v2l1.938.75C101 766 101 766 101.75 768.125L102 770c-5.875-4.625-5.875-4.625-7-8z" fill="#307DBD"/><path d="m792 433 2 4-4 4c.875-6.875.875-6.875 2-8z" fill="#2E2B2C"/><path d="m2223 157 8 3-3 2c-2.5-1.375-2.5-1.375-5-3v-2z" fill="#35A0E3"/></svg>