<svg xmlns="http://www.w3.org/2000/svg" width="650" height="650"><path d="M252.875 6.813c5.286 3.975 9.771 8.771 14.382 13.49 15.13 15.353 37.126 31.85 59.43 32.072 24.672-.159 47.015-18.955 63.59-35.672l2.036-2.078c8.935-8.972 18.44-12.647 31.058-13.84 9.849.583 17.942 3.968 26.317 8.965l2.97 1.725c3.126 1.823 6.236 3.67 9.342 5.525l3.071 1.833c4.121 2.465 8.239 4.936 12.348 7.42 8.807 5.318 17.701 10.47 26.64 15.561 28.389 16.235 28.389 16.235 33.793 33.983 2.656 12.254-.425 22.53-4.256 34.13-7.683 23.372-5.629 46.402 5.037 68.448C549.49 199.41 566.589 214.349 589 222c7.77 2.12 15.424 3.123 23.438 3.5 9.453.471 15.141 1.99 21.68 9.105 8.036 10.221 9.908 21.91 11.882 34.395l.556 3.246C653.388 312.946 658.83 377.363 636 414c-4.168 5.537-9.23 9.331-16 11-2.68.228-5.317.4-8 .5-18.97.713-35.813 7.046-51 18.5l-1.813 1.352c-16.853 13.467-26.148 35.794-29.875 56.46-1.503 15.48 1 29.278 5.813 43.875 4.22 12.884 5.544 24.753-.25 37.438-5.689 10.348-13.437 15.901-23.5 21.535-3.618 2.041-7.195 4.15-10.778 6.25-3.088 1.809-6.18 3.61-9.273 5.41-1.046.61-2.092 1.218-3.17 1.845L485 620c-3.042 1.77-6.084 3.542-9.125 5.314a6504.518 6504.518 0 0 1-5.98 3.48 1067.48 1067.48 0 0 0-14.977 8.87l-2.982 1.793a776.892 776.892 0 0 0-5.544 3.37c-7.981 4.796-15.314 7.76-24.704 7.673l-2.223-.017c-11.72-.38-21.393-6.03-29.328-14.463a318.937 318.937 0 0 1-3.485-4.063C373.967 616.933 351.97 599.511 332 596c-23.654-1.642-41.5 9.114-59 24l-2.637 2.242c-3.635 3.197-7.122 6.477-10.445 9.996-8.59 9.046-17.915 16.745-30.918 17.762-14.2.294-25.065-5.689-36.875-13l-6.637-4.043-3.318-2.029c-4.592-2.793-9.223-5.518-13.857-8.24l-5.333-3.157a1762.926 1762.926 0 0 0-9.728-5.718c-3.378-1.971-6.75-3.954-10.117-5.943-1.32-.777-2.644-1.55-3.97-2.318-13.067-7.577-22.075-15.202-26.977-30.005-2.968-11.788.045-22.157 3.71-33.435 7.682-23.728 6.568-47.467-4.7-69.992-3.666-7.01-7.88-13.233-13.198-19.12l-2.012-2.293c-13.855-14.88-33.328-23.19-53.45-24.287C24.298 425.378 24.298 425.378 18 419c-7.761-8.826-11.243-19.056-13.063-30.5l-.49-3.028c-.5-3.155-.974-6.313-1.447-9.472l-.466-2.904C-2.75 339.623-.84 305.388 4 272c.254-1.902.506-3.805.758-5.707 1.901-13.571 5.51-25.958 15.68-35.606 5.828-3.838 10.701-5.074 17.625-5.187 23.76-.963 44.514-10.138 60.937-27.5 17.487-20.547 23.716-45.376 22-72-.919-6.9-3.112-13.447-5.379-20.008-4.524-13.246-5.97-25.936.379-38.992 6.774-11.652 16.56-16.867 27.938-23.438l3.142-1.824a9059.398 9059.398 0 0 1 26.17-15.108c5.47-3.15 10.931-6.316 16.375-9.513l3.246-1.904c2.015-1.184 4.028-2.37 6.04-3.559 17.887-10.503 34.731-17.217 53.964-4.841zm-24.89 43.355-2.508 1.437-2.727 1.583-2.843 1.637a2206.108 2206.108 0 0 0-22.43 13.158c-8.092 4.8-16.22 9.54-24.36 14.26A493.035 493.035 0 0 0 157 92l.573 2.059c.825 2.976 1.625 5.959 2.427 8.941l1.02 3.66c9.359 34.456 4.822 70.82-12.922 101.91-5.584 9.351-12.668 17.514-20.098 25.43l-1.559 1.79C107.937 256.071 80.231 264.492 54 268c-1.604 6.744-2.697 13.438-3.563 20.313l-.38 2.896C46.717 317.215 41.95 358.899 54 383c2.86.524 5.681.942 8.563 1.313C88.606 388.099 110.097 399.815 129 418l1.922 1.695c21.989 20 33.227 53.845 34.89 82.618.711 16.675-1.177 34.355-7.503 49.93-1.566 4.045-1.566 4.045-.309 7.757 2.602 1.996 2.602 1.996 5.914 3.793l1.823 1.052c1.956 1.126 3.922 2.234 5.888 3.342 1.351.775 2.702 1.55 4.052 2.328 2.628 1.512 5.259 3.019 7.892 4.52a548.753 548.753 0 0 1 11.181 6.59l3.285 1.969c3.442 2.076 6.856 4.196 10.274 6.312a3479.1 3479.1 0 0 0 5.16 3.162 742.248 742.248 0 0 1 5.055 3.145l3.144 1.92 2.821 1.746c2.378 1.294 2.378 1.294 4.639.992 2.203-1.025 3.484-2.172 5.157-3.933l1.84-1.902 1.938-2.036c5.995-6.137 12.078-11.822 18.937-17l1.571-1.197c21.422-16.208 46.598-29.527 74.304-26.178 31.251 5.353 57.578 24.495 78.875 47.29l2.375 2.523 1.945 2.183c1.85 1.643 1.85 1.643 4.231 1.146 2.978-.846 5.176-2.033 7.812-3.654l2.995-1.822 3.204-1.979c2.263-1.377 4.526-2.753 6.79-4.128l1.744-1.063c5.737-3.49 11.533-6.876 17.341-10.246 11.305-6.569 22.566-13.21 33.813-19.875l-.564-1.814c-1.906-6.225-3.56-12.477-5.061-18.811l-.656-2.695c-7.729-32.44-.767-67.146 16.219-95.555C507.594 434.421 511.6 429.148 516 424l2.012-2.453C537.882 398.187 567.039 386.23 597 383c6.683-38.38 8.058-76.695 0-115l-3.742-.445C568.78 264.413 547.957 255.9 529 240l-2.484-2.023C501.979 217.247 487.843 184.525 485 153c-1.13-21.574 2.71-40.473 9-61l-1.591-.94a37566.88 37566.88 0 0 1-17.072-10.088l-6.658-3.932c-3.373-1.991-6.745-3.984-10.116-5.978l-3.408-2.009c-5.654-3.344-11.274-6.732-16.842-10.217l-3.194-1.989a635.832 635.832 0 0 1-5.963-3.77l-2.683-1.675-2.336-1.484c-2.081-1.1-2.081-1.1-4.28-.691-2.787 1.16-4.365 3.08-6.42 5.273-5.156 5.308-10.63 9.926-16.437 14.5l-2.918 2.398C373.03 88.315 346.731 101.767 319 99c-27.485-3.851-50.778-19.55-70.785-37.969a191.492 191.492 0 0 0-6.028-5.281 78.302 78.302 0 0 1-6-5.625c-3.315-3.22-4.533-2.07-8.203.043zm173.242 186.059c23.611 23.611 37.116 53.697 37.784 87.31-.14 30.838-10.034 58.913-30.011 82.463l-1.672 2.078c-16.715 20.218-42.756 32.498-68.265 36.547-30.102 2.822-58.22-4.772-82.063-23.625-24.378-20.216-41.118-48.28-44.754-80.063-2.33-37.273 6.208-70.564 31.07-99.03 19.022-21.083 46.942-35.318 75.485-36.876 31.269-.305 59.742 9.174 82.426 31.196zM285 272l-2.535 1.902C269.618 284.835 262.995 301.652 261 318c-1.267 21.665 5.103 39.527 18.75 56.129 10.893 11.704 27.37 18.604 43.176 19.205 18 .332 32.8-5.729 45.898-18.158L371 373l1.707-1.707c14.183-15.38 17.14-34.521 16.463-54.57C388.073 299.18 378.61 283.71 366 272c-23.983-20.035-56.955-19.383-81 0z" fill="#3698D9"/></svg>